<svg width="128" height="128" viewBox="0 0 128 128" fill="none" xmlns="http://www.w3.org/2000/svg">
<path d="M51.2911 16H87.5602V21.1426C86.0264 22.1351 84.2671 22.9922 82.2822 23.714C80.2973 24.3455 78.4929 24.7966 76.8689 25.0673L51.1557 57.6824C53.2308 60.5695 55.6668 63.8626 58.4637 67.5617C61.2605 71.1706 64.2379 74.9599 67.3956 78.9296C70.5534 82.8092 73.8014 86.7789 77.1396 90.8389C80.4778 94.8087 83.7258 98.598 86.8835 102.207L93.3795 106.131V110.733H69.8316L64.4183 106.943C62.253 104.237 59.9523 101.26 57.5164 98.0115C55.1706 94.6733 52.8248 91.2449 50.4791 87.7263C48.1333 84.1174 45.8326 80.5085 43.5771 76.8997C41.3215 73.2908 39.2013 69.7721 37.2165 66.3437H31.3972V101.666C33.382 102.026 35.1865 102.568 36.8105 103.289C38.4345 104.011 39.8329 104.778 41.0058 105.59V110.733H0V105.59C1.80443 104.688 3.65398 103.921 5.54864 103.289C7.44329 102.568 9.29284 102.026 11.0973 101.666V25.0673C9.02217 24.7966 6.99218 24.3004 5.00731 23.5786C3.11265 22.8569 1.44355 22.0449 0 21.1426V16H41.0058V21.1426C39.8329 21.8644 38.3893 22.5862 36.6751 23.308C35.0511 24.0297 33.2918 24.6162 31.3972 25.0673V59.4418L39.3818 57.5471L61.1703 25.0673C59.3659 24.7064 57.5615 24.1651 55.757 23.4433C54.0428 22.6313 52.5542 21.8644 51.2911 21.1426V16Z" fill="white"/>
<path d="M128 105.849C128 112.643 122.492 118.152 115.697 118.152C108.902 118.152 103.394 112.643 103.394 105.849C103.394 99.0538 108.902 93.5456 115.697 93.5456C122.492 93.5456 128 99.0538 128 105.849Z" fill="#326BFF"/>
</svg>
