<svg width="16" height="16" viewBox="0 0 16 16" fill="none" xmlns="http://www.w3.org/2000/svg">
<path d="M6.41138 2H10.945V2.64283C10.7533 2.76688 10.5334 2.87402 10.2853 2.96425C10.0372 3.04319 9.81161 3.09958 9.60861 3.13341L6.39446 7.2103C6.65385 7.57119 6.95835 7.98283 7.30796 8.44522C7.65757 8.89632 8.02973 9.36999 8.42445 9.86621C8.81917 10.3511 9.22517 10.8474 9.64245 11.3549C10.0597 11.8511 10.4657 12.3247 10.8604 12.7759L11.6724 13.2664V13.8416H8.72895L8.05229 13.3679C7.78162 13.0296 7.49404 12.6574 7.18954 12.2514C6.89632 11.8342 6.6031 11.4056 6.30988 10.9658C6.01666 10.5147 5.72908 10.0636 5.44714 9.61246C5.16519 9.16135 4.90017 8.72152 4.65206 8.29297H3.92464V12.7082C4.17275 12.7533 4.39831 12.821 4.60131 12.9112C4.80431 13.0014 4.97911 13.0973 5.12572 13.1988V13.8416H0V13.1988C0.225554 13.086 0.456747 12.9901 0.693579 12.9112C0.930411 12.821 1.1616 12.7533 1.38716 12.7082V3.13341C1.12777 3.09958 0.874023 3.03755 0.625913 2.94733C0.389081 2.85711 0.180443 2.75561 0 2.64283V2H5.12572V2.64283C4.97911 2.73305 4.79867 2.82327 4.58439 2.9135C4.38139 3.00372 4.16148 3.07702 3.92464 3.13341V7.43022L4.92272 7.19339L7.64629 3.13341C7.42074 3.0883 7.19518 3.02063 6.96963 2.93041C6.75535 2.82891 6.56927 2.73305 6.41138 2.64283V2Z" fill="white"/>
<path d="M16 13.2311C16 14.0804 15.3115 14.769 14.4621 14.769C13.6128 14.769 12.9243 14.0804 12.9243 13.2311C12.9243 12.3818 13.6128 11.6932 14.4621 11.6932C15.3115 11.6932 16 12.3818 16 13.2311Z" fill="#326BFF"/>
</svg>
