<svg width="32" height="32" viewBox="0 0 32 32" fill="none" xmlns="http://www.w3.org/2000/svg">
<path d="M12.8228 4H21.89V5.28566C21.5066 5.53377 21.0668 5.74805 20.5706 5.92849C20.0743 6.08638 19.6232 6.19915 19.2172 6.26682L12.7889 14.4206C13.3077 15.1424 13.9167 15.9657 14.6159 16.8904C15.3151 17.7926 16.0595 18.74 16.8489 19.7324C17.6383 20.7023 18.4503 21.6947 19.2849 22.7097C20.1194 23.7022 20.9314 24.6495 21.7209 25.5517L23.3449 26.5329V27.6832H17.4579L16.1046 26.7359C15.5632 26.0592 14.9881 25.3149 14.3791 24.5029C13.7926 23.6683 13.2062 22.8112 12.6198 21.9316C12.0333 21.0294 11.4582 20.1271 10.8943 19.2249C10.3304 18.3227 9.80033 17.443 9.30411 16.5859H7.84929V25.4164C8.34551 25.5066 8.79662 25.6419 9.20262 25.8224C9.60861 26.0028 9.95822 26.1945 10.2514 26.3975V27.6832H0V26.3975C0.451109 26.172 0.913495 25.9803 1.38716 25.8224C1.86082 25.6419 2.32321 25.5066 2.77432 25.4164V6.26682C2.25554 6.19915 1.74805 6.0751 1.25183 5.89466C0.778162 5.71421 0.360887 5.51121 0 5.28566V4H10.2514V5.28566C9.95822 5.4661 9.59733 5.64655 9.16878 5.82699C8.76278 6.00743 8.32295 6.15404 7.84929 6.26682V14.8604L9.84544 14.3868L15.2926 6.26682C14.8415 6.1766 14.3904 6.04127 13.9393 5.86082C13.5107 5.65782 13.1385 5.4661 12.8228 5.28566V4Z" fill="white"/>
<path d="M32 26.4622C32 28.1609 30.6229 29.538 28.9243 29.538C27.2256 29.538 25.8485 28.1609 25.8485 26.4622C25.8485 24.7635 27.2256 23.3865 28.9243 23.3865C30.6229 23.3865 32 24.7635 32 26.4622Z" fill="#326BFF"/>
</svg>
