<svg width="48" height="48" viewBox="0 0 48 48" fill="none" xmlns="http://www.w3.org/2000/svg">
<path d="M19.2341 6H32.8351V7.92849C32.2599 8.30065 31.6002 8.62207 30.8558 8.89274C30.1115 9.12957 29.4348 9.29873 28.8258 9.40023L19.1834 21.6309C19.9616 22.7136 20.8751 23.9485 21.9239 25.3356C22.9727 26.689 24.0892 28.11 25.2734 29.5986C26.4575 31.0534 27.6755 32.5421 28.9273 34.0646C30.1792 35.5533 31.3972 36.9742 32.5813 38.3276L35.0173 39.7993V41.5248H26.1869L24.1569 40.1038C23.3449 39.0888 22.4821 37.9723 21.5686 36.7543C20.689 35.5025 19.8093 34.2168 18.9296 32.8974C18.05 31.544 17.1872 30.1907 16.3414 28.8374C15.4956 27.484 14.7005 26.1646 13.9562 24.8789H11.7739V38.1246C12.5183 38.2599 13.1949 38.4629 13.8039 38.7336C14.4129 39.0042 14.9373 39.2918 15.3772 39.5963V41.5248H0V39.5963C0.676663 39.258 1.37024 38.9704 2.08074 38.7336C2.79123 38.4629 3.48481 38.2599 4.16148 38.1246V9.40023C3.38331 9.29873 2.62207 9.11265 1.87774 8.84198C1.16724 8.57132 0.54133 8.26682 0 7.92849V6H15.3772V7.92849C14.9373 8.19915 14.396 8.46982 13.7532 8.74049C13.1442 9.01115 12.4844 9.23107 11.7739 9.40023V22.2907L14.7682 21.5802L22.9389 9.40023C22.2622 9.2649 21.5855 9.0619 20.9089 8.79123C20.2661 8.48674 19.7078 8.19915 19.2341 7.92849V6Z" fill="black"/>
<path d="M48 39.6932C48 42.2412 45.9345 44.3068 43.3864 44.3068C40.8384 44.3068 38.7728 42.2412 38.7728 39.6932C38.7728 37.1452 40.8384 35.0796 43.3864 35.0796C45.9345 35.0796 48 37.1452 48 39.6932Z" fill="#054AFD"/>
</svg>
