<svg width="104" height="25" viewBox="0 0 104 25" fill="none" xmlns="http://www.w3.org/2000/svg">
<path d="M9.50206 7.65022H16.6058V8.83419C16.2213 8.9961 15.857 9.13777 15.513 9.2592C15.1891 9.38063 14.8248 9.48182 14.4201 9.56278C14.1165 9.96755 13.7825 10.3723 13.4183 10.7771C13.0742 11.1616 12.72 11.5361 12.3557 11.9003C12.0117 12.2646 11.6777 12.6188 11.3539 12.9629C11.0301 13.2867 10.7366 13.5802 10.4735 13.8433C10.7771 14.248 11.1313 14.7338 11.5361 15.3004C11.9408 15.8671 12.376 16.4743 12.8414 17.1219C13.3069 17.7493 13.7927 18.397 14.2986 19.0648C14.8248 19.7125 15.351 20.3298 15.8772 20.9167L17.4255 21.6453V22.8292H12.295L11.4753 22.1006C11.0098 21.4732 10.595 20.8863 10.2307 20.3399C9.8866 19.7934 9.5729 19.2672 9.28956 18.7613C9.00622 18.2553 8.73299 17.7696 8.46989 17.3041C8.20679 16.8183 7.94368 16.3427 7.68058 15.8773L6.67877 15.5737V20.9167C7.02282 20.9774 7.33652 21.0685 7.61987 21.1899C7.90321 21.3113 8.20679 21.4631 8.53061 21.6453V22.8292H0.30358V21.6453C0.971457 21.3215 1.63933 21.0786 2.30721 20.9167V2.51972L0 2.27685V1.09289C0.283342 0.971457 0.667877 0.850025 1.15361 0.728593C1.63933 0.607161 2.15542 0.505967 2.70186 0.425012C3.24831 0.323819 3.78463 0.242865 4.31084 0.182148C4.83705 0.101193 5.2823 0.0404769 5.64659 0H6.67877V14.2379H7.46808C8.13595 13.5296 8.75323 12.7504 9.31991 11.9003C9.90684 11.0503 10.4229 10.2711 10.8682 9.56278C10.6051 9.48182 10.3622 9.38063 10.1396 9.2592C9.93719 9.13777 9.72469 8.9961 9.50206 8.83419V7.65022Z" fill="#181818"/>
<path d="M26.7457 22.8292H18.3668V21.6453C19.0347 21.3215 19.7026 21.0786 20.3705 20.9167V2.51972L18.0633 2.27685V1.09289C18.3264 0.971457 18.6907 0.850025 19.1562 0.728593C19.6216 0.607161 20.1175 0.505967 20.6437 0.425012C21.1901 0.323819 21.7265 0.242865 22.2527 0.182148C22.7991 0.101193 23.2848 0.0404769 23.7099 0H24.742V20.9167C25.4099 21.0786 26.0778 21.3215 26.7457 21.6453V22.8292Z" fill="#181818"/>
<path d="M29.661 16.8183C29.661 15.5433 29.6913 14.3593 29.7521 13.2665C29.8128 12.1736 29.8431 11.02 29.8431 9.80564L27.8395 9.56278V8.37882C28.1633 8.25739 28.558 8.13595 29.0235 8.01452C29.5092 7.89309 30.005 7.79189 30.511 7.71094C31.017 7.60975 31.5027 7.52879 31.9682 7.46808C32.4539 7.38712 32.8587 7.3264 33.1825 7.28593H34.2147C34.2147 8.80383 34.1843 10.3015 34.1236 11.7789C34.0629 13.2361 34.0325 14.673 34.0325 16.0898C34.0325 17.7493 34.1944 18.9434 34.5183 19.672C34.8623 20.4006 35.4897 20.7649 36.4005 20.7649C37.0279 20.7649 37.6047 20.5321 38.1309 20.0667C38.6773 19.5809 39.1226 18.8119 39.4666 17.7594V9.80564L37.4934 9.56278V8.37882C37.7969 8.25739 38.1713 8.13595 38.6166 8.01452C39.0821 7.89309 39.5577 7.79189 40.0434 7.71094C40.5494 7.60975 41.0452 7.52879 41.531 7.46808C42.0167 7.38712 42.4417 7.3264 42.806 7.28593H43.8382V20.6738L45.8418 20.9167V21.9792C45.5585 22.1006 45.2043 22.2221 44.7793 22.3435C44.3543 22.4649 43.909 22.5864 43.4435 22.7078C42.978 22.809 42.5125 22.89 42.0471 22.9507C41.6018 23.0316 41.197 23.0923 40.8327 23.1328H39.8006L39.5881 19.5202H39.4666C39.3654 19.9452 39.1833 20.3804 38.9202 20.8256C38.6571 21.2506 38.313 21.6453 37.888 22.0096C37.4832 22.3536 36.9975 22.637 36.4308 22.8596C35.8641 23.0822 35.2367 23.1935 34.5486 23.1935C33.7795 23.1935 33.0914 23.0923 32.4843 22.89C31.8974 22.7078 31.3914 22.3739 30.9664 21.8881C30.5414 21.4024 30.2175 20.7548 29.9949 19.9452C29.7723 19.1154 29.661 18.0731 29.661 16.8183Z" fill="#181818"/>
<path d="M46.6332 8.37882C47.4023 7.89309 48.2119 7.54903 49.0619 7.34664V4.88764C49.2238 4.76621 49.6185 4.59418 50.2459 4.37156C50.8935 4.12869 51.612 3.93643 52.4013 3.79475H53.4334V7.65022H57.4407V9.56278H53.4334V17.4255C53.4334 18.6803 53.5852 19.5506 53.8888 20.0363C54.2126 20.522 54.7388 20.7649 55.4674 20.7649C55.8317 20.7649 56.2365 20.7447 56.6818 20.7042C57.1472 20.6435 57.5723 20.5423 57.9568 20.4006L58.1693 21.4024C57.9872 21.5846 57.7139 21.7768 57.3496 21.9792C57.0056 22.1816 56.6008 22.3739 56.1353 22.556C55.6901 22.7382 55.1942 22.89 54.6478 23.0114C54.1216 23.1328 53.565 23.1935 52.9781 23.1935C51.6626 23.1935 50.681 22.8495 50.0333 22.1614C49.3857 21.4732 49.0619 20.3601 49.0619 18.822V9.56278H46.6332V8.37882Z" fill="#181818"/>
<path d="M72.3591 20.3702C72.2174 20.775 71.9846 21.1494 71.6608 21.4935C71.337 21.8173 70.9424 22.1108 70.4769 22.3739C70.0316 22.637 69.5155 22.8394 68.9286 22.981C68.3619 23.1227 67.7649 23.1935 67.1375 23.1935C65.8017 23.1935 64.6481 23.0114 63.6767 22.6471C62.7255 22.2626 61.9361 21.7262 61.3087 21.0381C60.6813 20.3298 60.2159 19.4899 59.9123 18.5184C59.6087 17.5267 59.4569 16.4338 59.4569 15.2397C59.4569 12.6694 60.1551 10.7063 61.5516 9.35027C62.9683 7.97404 64.9719 7.28593 67.5625 7.28593C68.5542 7.28593 69.4649 7.39724 70.2947 7.61987C71.1245 7.82225 71.8126 8.06512 72.3591 8.34846C72.3186 8.69252 72.2579 9.07705 72.1769 9.50206C72.1162 9.90684 72.0352 10.3217 71.9341 10.7467C71.8531 11.1515 71.7519 11.5563 71.6305 11.9611C71.509 12.3456 71.3876 12.6694 71.2662 12.9325H69.7786L68.5036 9.31992C68.3619 9.21872 68.2101 9.14789 68.0482 9.10741C67.8863 9.04669 67.6435 9.01634 67.3196 9.01634C66.7934 9.01634 66.3381 9.11753 65.9535 9.31992C65.569 9.50206 65.2351 9.82588 64.9517 10.2914C64.6886 10.7569 64.4862 11.3741 64.3446 12.1432C64.2231 12.9123 64.1624 13.8635 64.1624 14.9969C64.1624 15.8267 64.2535 16.5957 64.4356 17.3041C64.6178 17.9922 64.891 18.5994 65.2553 19.1256C65.6398 19.6315 66.1154 20.0363 66.6821 20.3399C67.2488 20.6232 67.9167 20.7649 68.6858 20.7649C69.3941 20.7649 70.0114 20.6637 70.5376 20.4613C71.0638 20.2589 71.509 20.0161 71.8733 19.7327L72.3591 20.3702Z" fill="#181818"/>
<path d="M92.2853 22.8292H84.2404V21.6453C84.4833 21.5036 84.7363 21.3721 84.9994 21.2506C85.2625 21.1292 85.5661 21.0179 85.9101 20.9167V14.7844C85.9101 13.0438 85.7381 11.7688 85.394 10.9592C85.0702 10.1295 84.4226 9.71457 83.4511 9.71457C82.6416 9.71457 81.9535 9.99791 81.3868 10.5646C80.8201 11.111 80.4153 11.7486 80.1725 12.4772V20.9167C80.4963 20.9976 80.7796 21.0887 81.0225 21.1899C81.2856 21.2911 81.5588 21.4429 81.8422 21.6453V22.8292H73.7973V21.6453C74.4247 21.3215 75.0926 21.0786 75.8009 20.9167V2.51972L73.4937 2.27685V1.09289C73.7973 0.971457 74.1818 0.850025 74.6473 0.728593C75.133 0.607161 75.639 0.505967 76.1652 0.425012C76.6914 0.323819 77.2176 0.242865 77.7438 0.182148C78.27 0.101193 78.7355 0.0404769 79.1403 0H80.1725V10.7164H80.2028C80.4052 10.2509 80.6784 9.81576 81.0225 9.41099C81.3665 8.98598 81.7511 8.62168 82.1761 8.3181C82.6213 7.99428 83.097 7.7413 83.6029 7.55915C84.1089 7.377 84.6452 7.28593 85.2119 7.28593C86.0214 7.28593 86.7399 7.38712 87.3673 7.58951C88.015 7.77166 88.5513 8.10559 88.9763 8.59132C89.4013 9.07705 89.7251 9.73481 89.9477 10.5646C90.1704 11.3741 90.2817 12.4063 90.2817 13.6611V20.9167C90.6257 20.9976 90.9698 21.0887 91.3139 21.1899C91.6579 21.2911 91.9817 21.4429 92.2853 21.6453V22.8292Z" fill="#181818"/>
<path d="M96.0806 20.1894C96.0806 18.0025 97.8534 16.2296 100.04 16.2296C102.227 16.2296 104 18.0025 104 20.1894C104 22.3763 102.227 24.1491 100.04 24.1491C97.8534 24.1491 96.0806 22.3763 96.0806 20.1894Z" fill="#004BFD"/>
</svg>
