<svg width="20" height="19" viewBox="0 0 21 20" fill="none" xmlns="http://www.w3.org/2000/svg">
<g clip-path="url(#clip0_1856_7417)">
<rect x="4.25016" y="6.24992" width="12.5" height="10.8333" rx="2.91667" stroke="black" stroke-width="0.833333"/>
<path d="M1.75016 9.99992C1.75016 9.30956 2.30981 8.74992 3.00016 8.74992H4.25016V12.9166H3.00016C2.30981 12.9166 1.75016 12.3569 1.75016 11.6666V9.99992Z" fill="#7D7D7D" fill-opacity="0.4" stroke="black" stroke-width="0.833333"/>
<path d="M19.2498 9.99992C19.2498 9.30956 18.6902 8.74992 17.9998 8.74992H16.7498V12.9166H17.9998C18.6902 12.9166 19.2498 12.3569 19.2498 11.6666V9.99992Z" fill="#7D7D7D" fill-opacity="0.4" stroke="black" stroke-width="0.833333"/>
<circle cx="13.8333" cy="10.0001" r="0.833333" fill="black"/>
<circle cx="7.16683" cy="10.0001" r="0.833333" fill="black"/>
<path d="M8.41667 12.5C8.18655 12.5 7.99647 12.6878 8.03464 12.9147C8.06585 13.1003 8.11797 13.2821 8.1903 13.4567C8.31594 13.76 8.50009 14.0356 8.73223 14.2678C8.96438 14.4999 9.23998 14.6841 9.54329 14.8097C9.84661 14.9353 10.1717 15 10.5 15C10.8283 15 11.1534 14.9353 11.4567 14.8097C11.76 14.6841 12.0356 14.4999 12.2678 14.2678C12.4999 14.0356 12.6841 13.76 12.8097 13.4567C12.882 13.2821 12.9341 13.1003 12.9654 12.9147C13.0035 12.6878 12.8135 12.5 12.5833 12.5L10.5 12.5L8.41667 12.5Z" fill="black"/>
<rect x="10.0835" y="6.66675" width="3.33333" height="0.833333" rx="0.416667" transform="rotate(-90 10.0835 6.66675)" fill="black"/>
<circle cx="10.4998" cy="2.50008" r="1.25" fill="#8E8E8E" stroke="#8E8E8E" stroke-width="0.833333"/>
</g>
<defs>
<clipPath id="clip0_1856_7417">
<rect width="20" height="20" fill="white" transform="translate(0.5)"/>
</clipPath>
</defs>
</svg>
