<svg width="32" height="28" viewBox="0 0 32 28" fill="none" xmlns="http://www.w3.org/2000/svg">
<circle cx="29" cy="3" r="3" fill="#0D55FF"/>
<path fill-rule="evenodd" clip-rule="evenodd" d="M24 1H13V15H23.1712L27.625 18L27.6251 15H31V8H29V13H25.6251L25.6251 14.2415L23.782 13H15V3H24V1Z" fill="#181818"/>
<mask id="path-3-inside-1" fill="white">
<path fill-rule="evenodd" clip-rule="evenodd" d="M22 8H0V24H2.10495L2.10505 28L7.76062 24H22V8Z"/>
</mask>
<path fill-rule="evenodd" clip-rule="evenodd" d="M22 8H0V24H2.10495L2.10505 28L7.76062 24H22V8Z" fill="white"/>
<path d="M0 8V6H-2V8H0ZM22 8H24V6H22V8ZM0 24H-2V26H0V24ZM2.10495 24L4.10495 23.9999L4.1049 22H2.10495V24ZM2.10505 28L0.105054 28.0001L0.105153 31.8641L3.25993 29.6329L2.10505 28ZM7.76062 24V22H7.12483L6.60575 22.3671L7.76062 24ZM22 24V26H24V24H22ZM0 10H22V6H0V10ZM2 24V8H-2V24H2ZM2.10495 22H0V26H2.10495V22ZM4.10505 27.9999L4.10495 23.9999L0.104952 24.0001L0.105054 28.0001L4.10505 27.9999ZM6.60575 22.3671L0.950178 26.3671L3.25993 29.6329L8.9155 25.6329L6.60575 22.3671ZM22 22H7.76062V26H22V22ZM20 8V24H24V8H20Z" fill="black" mask="url(#path-3-inside-1)"/>
<rect x="5" y="13" width="12" height="2" fill="#181818"/>
<rect x="5" y="17" width="12" height="2" fill="#181818"/>
</svg>
