<svg width="23" height="23" viewBox="0 0 24 24" fill="none" xmlns="http://www.w3.org/2000/svg">
<path d="M19.5 21.5H4.5V2.5H13.7929L19.5 8.20711V21.5Z" stroke="#181818"/>
<mask id="mask0_3733_38947" style="mask-type:alpha" maskUnits="userSpaceOnUse" x="6" y="7" width="12" height="12">
<rect x="6" y="7" width="12" height="12" fill="#D9D9D9"/>
</mask>
<g mask="url(#mask0_3733_38947)">
<path d="M10.625 17.2499L12.1754 16H16.7504V17.2499H10.625ZM8.0504 16.4501H8.7002L13.2254 11.9375L12.563 11.2751L8.0504 15.8003V16.4501ZM14.9126 11.3873L13.1126 9.5753L13.6874 9.0125C13.8458 8.8541 14.0334 8.7749 14.2502 8.7749C14.467 8.7749 14.6586 8.8541 14.825 9.0125L15.4874 9.6749C15.6378 9.8333 15.713 10.0271 15.713 10.2563C15.713 10.4855 15.6338 10.6751 15.4754 10.8251L14.9126 11.3873ZM14.363 11.9375L9.05 17.2499H7.25V15.4499L12.563 10.1375L14.363 11.9375ZM12.9002 11.6129L12.563 11.2751L13.2254 11.9375L12.9002 11.6129Z" fill="#1C1B1F"/>
</g>
</svg>
