<svg width="20" height="20" viewBox="0 0 20 20" fill="none" xmlns="http://www.w3.org/2000/svg">
<path d="M4.49903 15.75H5.45703L13.52 7.68799L12.561 6.72899L4.49903 14.792V15.75ZM15.457 7.08299L13.187 4.79199L13.707 4.27099C13.985 3.97899 14.3184 3.83299 14.707 3.83299C15.0964 3.83299 15.4297 3.97899 15.707 4.27099L16.332 4.89599C16.5127 5.06266 16.596 5.28499 16.582 5.56299C16.568 5.84033 16.4777 6.06233 16.311 6.22899L15.457 7.08299ZM14.832 7.68799L5.85303 16.667H3.58203V14.396L12.561 5.41699L14.832 7.68799ZM13.041 7.20799L12.561 6.72899L13.52 7.68799L13.041 7.20799Z" fill="black"/>
</svg>
