<svg width="240" height="198" viewBox="0 0 240 198" fill="none" xmlns="http://www.w3.org/2000/svg">
<g filter="url(#filter0_f)">
<path fill-rule="evenodd" clip-rule="evenodd" d="M133.904 169.741C155.932 169.741 175.263 153.355 164.407 131.099C153.55 108.843 193.888 109.562 205.737 94.1801C220.188 75.4213 216.003 -4.20661 123.236 44.3385C108.376 52.1148 70.2122 36.3384 57.553 44.1664C42.6519 53.3807 21.6869 72.2486 42.6519 91.576C52.9789 101.096 15.9543 125.807 32.1704 147.941C47.9931 169.538 59.0846 148.95 83.1746 153.355C107.265 157.76 117.544 169.741 133.904 169.741Z" fill="#E7EEFF"/>
</g>
<path d="M108.332 131.022C108.332 131.022 113.404 128.636 115.298 126.977C117.191 125.317 119.545 121.193 119.545 121.193C119.545 121.193 145.403 139.868 162.264 137.204C166.149 136.59 173.718 134.008 174.201 129.458C175.519 117.035 157.282 113.86 161.266 107.56C163.697 103.714 171.251 109.438 171.251 109.438L202.582 124.849C202.582 124.849 191.758 151.53 165.491 152.599C133.179 153.915 108.332 131.022 108.332 131.022Z" fill="white"/>
<path fill-rule="evenodd" clip-rule="evenodd" d="M83.4915 26.5313C83.1975 26.4158 81.6182 24.4821 79.6133 24.1302C78.7022 23.9703 79.5291 25.1303 78.5264 25.1408C75.5402 25.1719 70.6872 24.6108 69.7881 25.1408C69.12 25.5334 70.5915 26.905 69.7881 26.968C62.2087 27.5621 50.6457 35.1299 48.1369 38.8014C47.3385 39.9698 53.7957 37.9874 52.7669 38.5651C51.6122 39.2134 50.3315 43.4586 49.5658 46.7374C49.0357 48.9952 48.702 51.901 48.5842 55.0619C48.486 57.7909 48.5253 58.2425 48.9179 59.7346C49.3695 61.4035 49.7229 61.8943 50.3315 61.6587C50.5475 61.5802 50.6457 61.2857 50.6457 60.7359C50.6457 60.304 50.8813 59.0082 51.1758 57.8498L51.6862 55.7687L51.9022 56.6326C52.1771 57.6339 53.787 60.7359 55.2399 62.9938C55.3182 63.1136 55.6553 62.9612 55.9593 62.2264C56.2364 61.5567 56.1239 60.487 56.5945 59.3406C57.6665 56.729 59.7714 53.3336 62.2087 50.6157C65.8107 46.5988 67.0058 41.9501 70.3824 38.2184C76.6837 31.2543 84.5923 26.9635 83.4915 26.5313Z" fill="white"/>
<path fill-rule="evenodd" clip-rule="evenodd" d="M52.8641 39.5134C51.8533 40.3263 50.3529 46.9193 50.3271 47.0295C49.797 49.2873 49.286 57.128 49.8084 58.6124C50.3307 60.0969 51.7932 54.7458 51.7932 54.7458C51.7932 54.7458 54.0039 60.4861 55.9572 62.0599C56.0406 62.1272 53.6354 54.9579 52.8641 50.7727C51.846 45.248 53.4394 39.0508 52.8641 39.5134Z" fill="#E7EAEE"/>
<path fill-rule="evenodd" clip-rule="evenodd" d="M90.539 154.982C92.4238 154.57 95.604 153.134 96.8217 152.643C98.0393 152.152 101.75 146.913 103.085 141.003C104.047 136.645 104.538 130.44 103.988 129.4C103.907 129.252 103.61 126.431 104.4 127.352C106.158 129.4 108.243 132.615 114.825 126.854C116.618 125.285 118.994 123.26 118.368 121.47C116.618 116.462 109.03 106.377 107.873 105.613C106.49 104.699 99.4996 105.476 89.0961 102.405C77.2978 98.9227 72.385 88.6684 67.768 90.0032C64.0341 91.0827 55.0881 97.7166 52.843 101.918C42.2436 121.75 55.0881 135.647 58.0133 139.639L60.8535 140.866L60.9517 143.398L61.0891 144.989C61.3443 148.032 61.4425 148.307 62.8168 149.328C66.2527 151.939 73.0261 154.373 79.1517 155.237C81.9986 155.63 88.183 155.493 90.539 154.982Z" fill="white"/>
<path fill-rule="evenodd" clip-rule="evenodd" d="M61.9711 142.47L62.1085 144.06C62.3638 147.103 62.4619 147.378 63.8363 148.399C65.8632 149.94 69.0517 151.419 72.5834 152.55C75.0384 153.336 77.6593 153.955 80.1712 154.309C83.018 154.702 89.2025 154.564 91.5585 154.054C92.723 153.801 83.1441 146.276 77.501 148.399C73.1674 150.03 62.9532 137.591 67.1062 134.342C71.7649 130.696 63.2281 116.318 62.9532 113.196C62.6784 110.075 61.5959 109.329 61.5643 109.438C61.5327 109.548 61.5327 109.921 61.6177 110.821C61.984 114.7 61.9711 142.47 61.9711 142.47Z" fill="#E7EAEE"/>
<path fill-rule="evenodd" clip-rule="evenodd" d="M60.9502 112.306C61.3623 112.225 61.7615 112.494 61.8418 112.907C63.3235 120.519 69.5913 125.673 80.799 128.368C92.0733 131.079 99.7529 130.933 103.799 128.039C104.141 127.795 103.886 129.887 103.636 130.047C100.997 131.74 92.024 134.265 81.3162 131.982C67.6251 129.064 61.1968 117.552 60.3491 113.197C60.2689 112.785 60.538 112.386 60.9502 112.306Z" fill="#0D55FF"/>
<path fill-rule="evenodd" clip-rule="evenodd" d="M55.2403 98.5708C55.6048 98.3623 69.203 113.947 87.8645 117.475C106.526 121.002 111.044 118.759 111.77 113.947C111.833 113.532 112.221 113.246 112.636 113.309C113.051 113.371 113.337 113.759 113.274 114.174C112.354 120.272 103.719 121.723 87.6087 118.974C71.7011 116.259 60.7948 109.81 54.9579 99.6083C54.7494 99.2439 54.8758 98.7793 55.2403 98.5708Z" fill="#0D55FF"/>
<path fill-rule="evenodd" clip-rule="evenodd" d="M133.564 97.7069C133.053 97.5302 132.503 97.1375 132.15 96.686L131.561 95.9595L133.642 93.898C136.842 90.7567 139.297 87.5368 141.417 83.7084C142.124 82.4322 143.91 78.1718 143.91 77.7595C143.91 77.622 144.126 77.0723 144.382 76.5029C144.774 75.6783 145.069 75.3642 145.913 74.893C146.914 74.304 148.053 74.1077 148.544 74.4414C149.486 75.0697 149.486 77.0527 148.544 80.4689C147.503 84.2188 146.109 86.9086 143.223 90.7763C142.772 91.3653 141.927 92.5237 141.319 93.3287C139.689 95.4883 138.629 96.5289 137.196 97.3339C135.782 98.1192 134.958 98.2174 133.564 97.7069ZM147.662 95.9405L149.075 96.5687C149.368 96.704 152.602 98.2577 156.486 100.124C162.749 103.133 170.702 106.955 170.751 106.955C170.829 106.955 171.197 106.103 171.281 105.109C171.477 102.969 172.203 100.063 173.048 98.0412C173.44 97.1381 173.754 96.0094 173.754 95.9112C173.754 95.8664 173.435 95.7376 172.913 95.5269C172.291 95.276 171.38 94.9089 170.378 94.4287C165.43 92.0531 155.751 87.2037 154.553 86.4772C153.375 85.7901 153.139 85.7312 153.139 86.1827C153.139 86.7717 151.942 89.5007 151.019 90.9733C150.528 91.7782 149.566 93.2311 148.879 94.1931L147.662 95.9405ZM170.415 103.419C170.978 103.746 170.003 104.224 169.768 104.303C168.38 104.421 166.747 104.16 165.409 103.38C164.709 102.884 159.2 99.8231 155.546 97.7928C153.875 96.8646 152.592 96.1518 152.333 95.9978C151.509 95.507 150.723 94.9769 150.586 94.8198C150.174 94.2897 150.566 94.0541 151.725 94.1523C152.421 94.2113 169.199 102.714 170.415 103.419ZM90.6027 154.819C92.1172 154.488 94.468 153.496 95.965 152.864C96.3311 152.71 96.6461 152.577 96.8853 152.48C98.103 151.989 101.813 146.75 103.148 140.841C104.11 136.482 104.601 130.278 104.052 129.237C103.72 128.635 105.689 130.656 107.156 132.162C107.6 132.618 107.999 133.027 108.273 133.301C116.833 141.803 129.575 148.635 142.808 151.835C149.404 153.445 154.097 154.014 160.399 154.014C170.981 154.014 179.326 151.933 186.904 147.359C187.264 147.141 187.601 146.942 187.923 146.751C190.565 145.187 192.138 144.256 196.446 139.407C201.277 133.969 205.575 121.345 207.009 116.986C207.637 115.023 209.168 107.214 209.168 105.265C209.168 102.958 208.363 101.868 207.264 100.749C205.32 98.8449 202.689 98.1577 200.51 98.9823L199.489 99.375L199.175 98.3344C198.723 96.7637 197.781 95.5072 196.328 94.5648C194.168 93.1316 193.854 93.0334 191.911 93.0334C190.399 93.0334 189.986 93.1119 189.024 93.5635L187.905 94.074L187.67 93.3672C187.218 91.9143 185.704 89.889 184.528 89.3031C183.486 88.7835 181.682 88.7359 180.425 88.9693C177.676 89.4798 175.713 90.7559 174.908 92.5426C174.672 93.0923 174.378 93.5242 174.26 93.5242C174.162 93.5242 170.294 92.444 165.68 90.4022C164.902 90.0566 164.171 89.7326 163.485 89.4283L163.484 89.4282L163.484 89.4282C155.199 85.756 153.404 84.96 153.567 83.9628C153.704 83.1186 153.665 82.6474 153.429 81.921C153.017 80.7037 152.546 80.3699 151.211 80.3699C150.15 80.3699 150.15 80.3699 150.268 79.8398C150.897 76.8359 150.877 75.1082 150.209 74.0087C149.758 73.2823 149.228 72.9878 148.01 72.8111C147.304 72.7129 146.97 72.7718 146.185 73.2038C145.654 73.4786 145.203 73.675 145.164 73.6357C145.124 73.5964 145.262 72.5166 145.478 71.2404C147.088 61.7968 145.844 53.6602 141.741 45.0215C141.701 44.939 141.656 44.8414 141.604 44.7297L141.604 44.7293C140.356 42.0511 135.34 31.2821 120.995 25.8482C120.346 25.6023 119.731 25.3645 119.141 25.1359C114.254 23.2445 111.006 21.9871 103.168 22.0001C94.383 22.0147 91.4077 23.2566 85.6158 25.9071C84.8109 26.2802 84.1041 26.4961 84.0452 26.4176C83.9863 26.3194 83.6132 26.0838 83.2402 25.8875C82.8672 25.6912 82.0622 25.2003 81.4732 24.8077C79.7847 23.6689 78.7442 23.1977 78.2141 23.3155C77.6054 23.4726 77.6054 23.9831 78.2141 24.2187C78.4693 24.3168 78.7638 24.6506 78.8816 24.9844C79.1368 25.6912 79.4313 25.7697 79.608 25.1807C79.6866 24.9647 79.8044 24.8077 79.8633 24.8469C79.8856 24.8581 79.9604 24.8931 80.0744 24.9465C80.3614 25.0808 80.8972 25.3317 81.4732 25.6126C82.2782 26.0053 83.1617 26.4176 83.3973 26.5158C83.8292 26.6728 83.6918 26.7906 81.8266 27.8901C74.5426 32.1702 68.6134 38.8258 65.2954 46.4043C64.7849 47.543 64.3333 48.2498 63.8621 48.6425C62.6645 49.6438 60.3085 52.4906 59.7588 53.6097C59.4643 54.2184 58.836 55.1608 58.3452 55.7105C57.874 56.2602 57.3635 56.967 57.1868 57.2615C57.0297 57.5757 56.8727 57.7916 56.8138 57.7524C56.7745 57.6935 56.8334 56.7314 56.9708 55.6123C57.2653 53.0011 57.2653 52.3139 57.0297 52.255C56.6763 52.1569 56.1659 53.5312 55.9499 55.2393C55.7928 56.2799 55.7536 57.8505 55.8517 59.4605L55.9695 62.0128L54.5756 59.755C54.0954 58.9987 53.6226 58.2425 53.2873 57.7061C53.0741 57.3652 52.9165 57.1131 52.8478 57.0063C52.3374 56.2602 52.0429 55.1411 52.2588 54.7681C52.3766 54.5521 52.357 54.454 52.1607 54.454C51.7484 54.454 50.9434 55.7694 50.4133 57.2812C50.1581 57.988 49.9029 58.577 49.8243 58.577C49.5298 58.577 49.6673 51.5482 49.9814 49.2904C50.6293 44.8336 52.3374 39.3363 53.1031 39.3363C53.2601 39.3363 53.3976 39.2578 53.3976 39.14C53.3976 38.7866 52.8871 38.924 52.4748 39.3756C51.5521 40.3769 50.3348 43.4593 49.5691 46.7381C49.039 48.9959 48.7052 51.9016 48.5874 55.0626C48.4893 57.7916 48.5285 58.2432 48.9212 59.7353C49.3728 61.4042 49.7262 61.895 50.3348 61.6594C50.5508 61.5809 50.6489 61.2864 50.6489 60.7366C50.6489 60.3047 50.8845 59.0089 51.179 57.8505L51.6895 55.7694L51.9054 56.6333C52.1803 57.6346 53.7902 60.7366 55.2431 62.9945C56.2444 64.5259 56.264 64.624 56.5978 67.0193C56.7745 68.374 57.3242 71.6691 58.6004 76.7378C59.728 81.2163 66.0669 85.659 67.6496 86.7683L67.6498 86.7684L67.6507 86.7691C67.8586 86.9148 67.9842 87.0028 68.0048 87.0256C68.2011 87.2416 68.476 87.3594 68.633 87.3005C68.8097 87.2416 68.9079 87.3201 68.9079 87.5361C68.9079 87.7324 69.0453 87.9877 69.2024 88.1055C69.3987 88.2429 69.5362 88.773 69.5754 89.6957C69.6736 91.5413 71.0479 95.0753 72.1081 96.2336C72.7953 96.9797 74.2285 97.2938 75.8188 97.019C76.8594 96.8619 77.1539 96.7441 77.0557 96.5085C76.9968 96.3514 77.3698 96.5478 77.8803 96.9404C83.8488 101.495 89.8959 104.224 96.689 105.402C99.3199 105.854 103.678 106.109 106.054 105.932H106.054C107.577 105.833 107.996 105.805 108.074 105.955C108.103 106.012 108.084 106.094 108.057 106.207C107.919 106.757 108.096 107.091 110.982 111.98C113.279 115.847 113.475 116.103 116.028 118.714C121.447 124.309 127.356 128.648 134.051 132.006C140.353 135.147 150.416 137.758 159.614 138.583C168.812 139.407 175.419 130.965 175.399 128.805C175.36 125.841 174.947 123.897 173.946 122.012C172.964 120.186 172.316 119.558 169.371 117.595C166.093 115.415 164.071 113.629 162.735 111.724C161.891 110.527 161.577 109.172 161.577 108.446C161.577 107.974 162.186 106.914 163.089 106.698C163.913 106.482 164.071 106.502 164.993 106.953C165.543 107.209 166.976 107.876 168.154 108.446C169.352 108.995 170.51 109.545 170.746 109.663C171.44 109.856 171.734 111.215 171.893 111.952L171.893 111.952L171.893 111.953C171.929 112.118 171.958 112.251 171.983 112.333C172.258 113.354 173.558 114.672 174.398 115.121C175.871 115.909 179.503 116.014 180.504 114.935C180.759 114.66 181.605 114.322 181.78 114.424C181.954 114.526 182.585 115.376 182.585 116.063C182.604 117.241 183.213 118.321 184.509 119.401C186.963 121.443 188.867 121.934 190.791 121.031C191.793 120.559 192.613 120.375 192.613 120.375C192.613 120.375 193.432 121.42 193.481 121.777C193.867 124.566 197.997 125.735 199.096 125.853C199.348 125.879 199.839 125.771 200.337 125.661C201.003 125.515 201.682 125.365 201.825 125.527C202.106 125.843 197.133 134.067 196.446 135.108C189.908 144.924 177.186 150.932 161.616 151.56C151.505 151.973 139.077 149.145 128.299 144.001C121.407 140.683 115.301 136.619 108.763 130.926C107.625 129.944 106.309 128.825 105.838 128.432C105.367 128.059 104.248 126.783 103.384 125.605C101.931 123.642 101.107 122.935 101.107 123.602C101.107 123.897 102.049 125.703 103.129 127.49C103.561 128.197 103.836 128.688 103.737 128.609C103.639 128.53 103.325 129.944 103.031 131.75C102.069 137.542 100.478 143.255 98.8683 146.809C97.9848 148.733 96.2908 150.17 95.7803 150.563C93.8955 151.996 91.0739 152.64 87.1669 153.033C82.2193 153.524 74.9353 152.424 69.3791 150.343C67.9066 149.793 64.1174 148.203 63.8621 148.026C63.8468 148.011 63.7598 147.446 63.6384 146.658L63.6379 146.654C63.6038 146.433 63.567 146.194 63.5284 145.945C62.8216 141.096 61.8399 122.424 61.8399 113.786C61.8399 110.213 61.8006 109.427 61.565 109.427C61.0742 109.427 60.8779 109.898 60.6619 111.587C60.1711 115.435 60.2692 135.52 60.7993 139.741L60.9171 140.703L60.2496 140.33C59.2287 139.741 55.3413 135.795 53.9866 133.969C52.8397 132.408 52.1581 130.409 51.6481 128.913C51.5295 128.565 51.4202 128.244 51.3165 127.963C48.4696 120.07 49.4709 111.214 53.3976 103.243C56.7352 96.4496 60.8386 92.68 66.8464 90.8541C67.8281 90.5596 68.6919 90.2455 68.7901 90.1669C69.1631 89.8135 66.7679 89.9902 65.4524 90.4025C61.1724 91.718 56.696 95.3109 53.6528 99.9051C49.3728 106.345 47.4487 115.847 48.8034 123.956C49.1175 125.88 50.3937 130.042 50.7471 130.337C50.7784 130.368 50.9399 130.707 51.1841 131.219L51.1841 131.219L51.1842 131.219C51.8595 132.636 53.1672 135.379 54.1044 136.619C55.2431 138.17 58.6789 141.547 60.1122 142.588L61.0153 143.236L61.1527 144.826C61.408 147.869 61.5061 148.144 62.8805 149.165C66.3163 151.776 73.0898 154.211 79.2154 155.075C82.0622 155.467 88.2467 155.33 90.6027 154.819ZM156.968 136.384C145.561 135.383 131.779 129.944 121.805 121.541C117.603 117.987 112.145 111.077 109.986 107.248C109.534 106.463 109.2 106.09 108.808 105.992C108.395 105.874 108.749 105.756 110.437 105.481C117.564 104.264 124.495 101.299 130.09 97.0782L130.915 96.4696L131.15 97.039C131.68 98.3151 133.722 99.6109 135.234 99.6109C135.843 99.6109 137.885 98.6882 139.121 97.8439L139.966 97.2746L140.653 97.9617C141.281 98.59 141.399 98.6293 142.577 98.6293C143.932 98.6293 145.561 98.0206 146.464 97.1568L146.955 96.7052L148.349 97.628C149.095 98.1581 151.176 99.3164 152.963 100.239C155.633 101.614 158.46 103.204 161.15 104.853L161.582 105.128L161.17 105.678C160.738 106.267 159.933 107.386 159.933 109.094C159.933 111.018 161.934 114.475 165.764 116.849C168.773 118.714 173.951 122.383 173.755 127.745C173.731 128.393 173.009 130.003 172.047 131.456C171.418 132.379 169.671 133.753 168.081 134.558C165.371 135.913 160.6 136.698 156.968 136.384ZM52.2775 48.2507C52.8076 48.3685 53.161 48.5452 53.0824 48.6238C52.8272 48.879 51.4725 48.7612 51.1584 48.4471C50.6676 47.9759 50.7854 47.6421 51.4725 47.5047C51.8259 47.4458 52.356 47.1513 52.6505 46.8568C52.945 46.5623 53.2002 46.4248 53.2002 46.523C53.2002 46.7782 52.2186 47.6814 51.7278 47.8777C51.4136 48.0151 51.5118 48.074 52.2775 48.2507ZM60.0869 48.5646C60.6563 48.2504 60.5385 48.0345 59.8709 48.1326C59.2034 48.2308 59.1641 48.1523 59.5961 47.4847C59.7728 47.2295 59.8709 46.8565 59.8317 46.6601C59.7728 46.4049 59.6353 46.5227 59.3212 47.151C59.0856 47.6025 58.7518 47.9756 58.5948 47.9756C58.1039 47.9756 58.0647 48.3682 58.5359 48.5449C59.1445 48.8002 59.6157 48.8002 60.0869 48.5646ZM53.3 37.8447C52.8288 37.9233 51.3563 38.5122 50.0605 39.1601C48.7451 39.7884 47.626 40.3185 47.5475 40.2989C45.5449 40.0829 48.3328 36.7453 53.3982 33.3291C58.2476 30.0503 61.5264 28.3226 64.5695 27.4391C66.474 26.8893 68.614 26.8108 69.2226 27.2624C69.5564 27.5176 69.4386 27.5372 67.9857 27.5569C64.8444 27.5569 61.2122 29.1668 55.3026 33.1131C52.2398 35.155 48.6862 38.0803 48.6862 38.5515C48.6862 38.6497 49.2556 38.4534 49.9624 38.1392C51.4741 37.4521 53.0252 37.0987 53.7123 37.2557C54.4388 37.4521 54.2817 37.7073 53.3 37.8447ZM60.9011 39.5328C62.7466 39.1598 62.8251 39.1401 62.8251 38.9438C62.8251 38.8456 62.1183 38.7475 61.2348 38.7082L59.6445 38.6493L61.117 36.9805C61.922 36.0577 62.8644 35.1349 63.1982 34.919C63.9246 34.4478 63.9639 34.114 63.3749 33.9177L62.9233 33.7802L63.4141 33.6035C63.689 33.5054 64.1995 33.4661 64.5529 33.525C65.083 33.6035 65.2008 33.5643 65.1419 33.2894C65.083 33.0146 64.867 32.9557 63.905 32.9753C61.0974 33.0146 59.8998 33.7606 62.0987 34.114C62.7073 34.2122 63.2178 34.3692 63.2178 34.4674C63.2178 34.5459 63.1196 34.6245 63.0018 34.6245C62.6288 34.6245 59.4678 37.8247 59.0752 38.61C58.4665 39.7684 58.8003 39.9451 60.9011 39.5328ZM73.86 31.9151C73.2906 31.9544 73.1532 32.0525 73.1924 32.3274L73.1985 32.3674L73.1985 32.3674C73.2205 32.5126 73.2332 32.5961 73.2006 32.6214C73.1567 32.6556 73.0304 32.5839 72.7335 32.4155L72.7335 32.4155L72.682 32.3863C72.3089 32.19 72.2697 32.0918 72.4856 31.9347C72.6231 31.8169 72.9961 31.6402 73.2906 31.5813L73.8403 31.4439L73.428 31.012C73.2121 30.7567 73.0943 30.5211 73.1532 30.4426C73.3102 30.2855 75.2343 30.5015 75.5092 30.7175C75.627 30.8156 75.8037 30.796 75.9215 30.6782C76.1963 30.4033 76.5694 30.6193 76.5694 31.0512C76.5694 31.2868 76.5105 31.3065 76.3338 31.1298C76.1767 30.9727 76.0393 30.9727 75.8626 31.1101C75.7055 31.2476 75.5877 31.2476 75.4895 31.0905C75.4306 30.9923 75.0576 30.8942 74.6649 30.8942C74.3027 30.8942 74.1314 30.8942 74.0964 30.9632C74.0651 31.0251 74.1434 31.1426 74.2919 31.3654C74.6051 31.8547 74.5865 31.8562 73.8666 31.9146L73.86 31.9151ZM70.8777 26.6933C70.8777 26.4381 70.6421 25.9865 70.3476 25.692L69.7978 25.1423L72.7428 25.2601C74.3724 25.3386 76.2179 25.5153 76.8658 25.692C77.5137 25.8491 78.2598 25.9669 78.5347 25.9669C78.947 25.9669 78.8684 25.8884 78.1027 25.4761C76.7677 24.7889 75.0596 24.4551 71.7808 24.2195C67.8541 23.9447 65.8712 24.3177 66.2442 25.2994C66.3031 25.4957 66.6172 25.5939 67.0884 25.5939C68.0505 25.5939 69.6211 26.1632 70.1512 26.6933C70.7206 27.2627 70.8777 27.2627 70.8777 26.6933ZM61.2928 78.6824C62.8831 80.7242 64.9839 83.041 65.9655 83.8263C66.5545 84.2975 67.065 84.6902 67.1043 84.6902C67.1239 84.6902 66.692 83.787 66.1422 82.6876C63.9237 78.2701 62.6279 73.8722 62.0193 68.8068C61.8818 67.6877 61.6659 66.7453 61.4303 66.3527C60.9591 65.5673 60.9591 64.5464 61.4499 63.5844C61.7051 63.0739 61.8426 62.426 61.8426 61.7192V60.6394L60.9002 61.621C59.9774 62.5831 59.0939 62.9757 59.0939 62.3867C59.0939 61.9548 60.5468 59.8737 61.3125 59.2258C61.9211 58.7153 61.9996 58.5386 62.196 57.0072C62.3334 56.0844 62.6475 54.4549 62.9028 53.375C63.1776 52.2952 63.3347 51.3724 63.2954 51.3332C63.158 51.1957 58.5442 56.4947 57.9159 58.1852C57.778 58.5564 57.4054 59.2061 57.1109 59.5988L56.6005 60.2542C56.6005 60.2542 56.759 61.172 56.9342 62.3254C57.1112 63.4907 57.1943 64.2918 57.2683 65.0053C57.3672 65.9598 57.4499 66.7575 57.7196 68.0608C58.0337 69.6707 58.3478 71.0647 58.4264 71.1628C58.4853 71.2806 58.7405 72.1838 58.9957 73.185C59.5455 75.4036 60.4682 77.6025 61.2928 78.6824ZM140.958 97.2551L140.545 96.8428C140.545 96.8428 147.389 88.1486 148.615 84.9451C149.55 82.5003 150.101 81.8071 150.844 81.8071C151.26 81.8071 151.599 81.9019 151.756 82.1375C152.031 82.5498 152.296 83.0603 151.942 84.8076C151.353 87.6348 150.45 89.5 147.741 93.5248C147.113 94.4476 146.308 95.4685 145.954 95.8219C145.13 96.5876 143.274 97.3729 142.195 97.5496C141.507 97.6478 141.311 97.6085 140.958 97.2551Z" fill="#00160A"/>
<path d="M195.327 116.462C197.77 109.807 197.4 108.389 196.976 108.25C196.976 108.25 196.043 108.78 195.631 109.899C194.865 112 192.245 117.497 191.263 118.479C190.105 119.637 190.105 119.637 188.927 119.637C187.749 119.637 184.351 117.863 183.889 116.115C183.149 113.317 186.335 103.597 186.414 103.047L185.883 102.674C185.53 103.008 180.933 116.948 174.889 113.315C174.197 112.9 172.729 110.94 172.611 109.899C171.957 106.876 174.959 96.3033 175.469 94.1316C175.926 92.1878 178.305 90.3838 181.23 90.3838C185.726 90.3838 185.122 94.3139 187.136 95.6988C188.029 96.3125 189.495 95.1998 189.948 95.1154C192.48 94.6442 193.451 95.1929 195.307 96.6664C196.741 97.8039 197.801 100.055 198.968 100.848C199.617 101.289 200.305 100.687 200.53 100.573C201.454 100.11 203.436 100.456 203.985 100.848C204.791 101.2 206.766 103.098 207.078 104.202C208.492 109.206 204.027 120.3 202.341 122.382C199.551 125.826 192.884 123.117 195.327 116.462Z" fill="white"/>
<path fill-rule="evenodd" clip-rule="evenodd" d="M82.45 98.2263C87.8295 101.623 93.3765 103.841 99.6984 104.45C104.685 104.921 111.409 104.273 116.239 102.703C120.303 101.387 125.8 97.7432 129.472 94.6608C136.599 88.6923 141.095 79.3694 143.058 69.4743C143.333 68.0803 143.752 64.5763 143.732 61.1012C143.732 57.0568 141.952 46.0044 136.559 39.6317C125.436 26.4879 107.152 20.567 91.7852 25.626C86.242 27.451 80.34 30.7574 75.8832 35.0767C70.2681 40.5544 66.1255 48.0151 64.4763 55.6328C62.7485 63.6824 64.996 73.3027 68.903 81.1953C72.0247 87.478 77.1686 94.869 82.45 98.2263ZM134.882 74.5002C131.19 85.593 121.57 93.8783 109.476 96.3914C107.631 96.7644 106.354 96.9018 103.763 96.9411C101.937 97 100.111 96.9804 99.7379 96.9411C91.276 95.9202 84.8363 92.7985 78.907 86.8692C76.3154 84.258 75.216 82.8444 73.606 80.0565C71.0733 75.639 69.7186 71.1233 69.3063 65.6849C67.8928 47.0529 81.2237 31.5229 99.9932 29.913C107.356 29.2847 115.523 31.5426 121.727 35.9404C124.024 37.57 128.187 41.693 129.482 43.617C130.012 44.3827 135.156 51.9023 136.059 56.2216C137.218 61.8368 136.766 68.8655 134.882 74.5002Z" fill="white"/>
<path fill-rule="evenodd" clip-rule="evenodd" d="M143.751 61.1003C143.751 74.2784 137.517 88.6855 129.473 94.8384C125.634 97.7739 120.618 101.328 116.25 102.702C109.849 104.714 99.71 104.449 99.71 104.449C99.71 104.449 110.054 103.066 113.887 101.524C124.88 97.0999 130.88 90.3091 134.586 83.7935C141.9 70.932 143.751 60.7801 143.751 61.1003Z" fill="#E7EAEE"/>
<path fill-rule="evenodd" clip-rule="evenodd" d="M99.9337 94.5855C94.6916 93.918 89.4888 92.0528 85.2873 89.2845C82.7938 87.655 79.0242 83.8265 77.1983 81.0975C74.5871 77.1708 72.8594 72.9693 72.0151 68.4536C71.4065 65.1748 71.4261 60.1291 72.0348 57.2037C72.663 54.2195 73.468 51.942 74.9012 49.0559C76.5701 45.7182 78.3371 43.2641 80.9876 40.6136C85.5032 36.0979 90.7453 33.2315 96.9887 31.8571C99.0109 31.4252 106.334 31.0718 106.589 31.4056C106.648 31.5037 107.041 31.759 107.453 31.9749C107.866 32.2105 108.965 33.0351 109.868 33.8401C111.223 35.0181 111.831 35.7641 113.009 37.6097C113.814 38.8662 114.462 40.0049 114.462 40.1031C114.462 40.3191 115.091 40.7117 115.444 40.7117C115.935 40.7117 116.269 39.2392 116.367 36.6476C116.426 35.2144 116.543 34.0364 116.622 34.0364C116.897 34.0364 119.92 35.7052 121.334 36.6476C124.102 38.4932 126.871 41.0848 128.912 43.7942C129.835 45.0114 129.973 45.3256 129.973 46.0716C129.973 46.7588 130.169 47.2889 130.778 48.3491C132.309 51.0192 133.507 54.3765 134.233 58.0872C134.704 60.5806 134.704 65.2926 134.213 67.9039C132.878 75.0897 128.912 82.2362 123.749 86.7715C119.371 90.6 114.718 92.956 109.22 94.1143C107.335 94.5266 101.681 94.8015 99.9337 94.5855ZM85.9023 81.1553C86.079 80.959 86.1968 80.6645 86.1379 80.527C86.1202 80.4858 85.8745 80.3703 85.5148 80.2012L85.5146 80.2011L85.5145 80.201C84.6757 79.8067 83.2174 79.1211 82.5854 78.4066C80.0723 75.5402 79.1495 73.4002 78.5802 68.9827C78.0304 64.683 78.4923 61.7762 79.4833 57.1045C79.9667 54.8256 81.2517 52.9432 82.0511 51.772C82.5947 50.9757 82.9138 50.5082 82.6039 50.4685C81.8382 50.3507 81.7204 50.4096 80.9154 51.1753C79.1877 52.8245 78.4024 54.1399 77.5778 56.6726C76.3016 60.6385 76.055 71.3564 78.5802 76.1881C81.1053 81.0198 85.4507 81.6658 85.9023 81.1553ZM113.824 64.6638C113.49 67.7137 112.076 72.1244 110.427 74.0485C109.661 74.9516 106.851 76.5027 104.478 76.1885C102.187 75.8851 100.395 74.8142 98.8631 72.5171C97.5477 70.5341 96.8683 68.1272 96.409 65.0957C95.6158 59.861 99.0791 53.7673 100.571 52.2555C102.083 50.7045 103.163 50.1548 104.537 50.1351C105.872 50.1351 106.736 50.4296 108.091 51.3917C110.565 53.1194 114.472 58.7371 113.824 64.6638ZM87.3547 48.4258C87.7474 47.9743 87.8063 47.7583 87.6885 46.9141C87.6099 46.1287 87.4529 45.8146 87.0406 45.4808C86.3141 44.8918 85.411 44.8918 84.7435 45.5201C84.2723 45.9717 84.2134 46.1287 84.2723 47.2086C84.3312 48.3669 84.3704 48.4455 85.0183 48.7989C85.8822 49.2701 86.7264 49.1326 87.3547 48.4258ZM99.6039 36.3119C96.0699 38.8446 94.5385 39.8852 92.9482 40.8669C91.6917 41.6522 91.299 41.6718 91.299 40.965C91.299 40.592 91.5739 40.1797 92.2807 39.5318L93.2623 38.6287L91.3579 38.3734C89.2179 38.0986 87.1368 37.5096 86.6852 37.058C85.9391 36.2923 86.587 36.1156 88.7074 36.5083C89.6498 36.6653 91.4757 36.8617 92.7715 36.9009L95.1275 36.9991L96.8356 35.7622C100.586 33.0528 104.473 31.5214 106.338 31.9926C107.496 32.2675 107.359 32.5816 106.044 32.7387C104.532 32.9154 103.609 33.4259 99.6039 36.3119Z" fill="white"/>
<path d="M104.642 73.4996C104.642 73.4014 104.759 73.3032 104.916 73.3032C105.074 73.3032 105.27 73.4014 105.329 73.4996C105.388 73.6174 105.27 73.6959 105.054 73.6959C104.818 73.6959 104.642 73.6174 104.642 73.4996Z" fill="white"/>
<path d="M105.82 73.3232C105.82 73.1072 106.311 72.9109 106.861 72.9109C107.293 72.9305 107.293 72.9305 106.92 73.2054C106.488 73.5392 105.82 73.5981 105.82 73.3232Z" fill="white"/>
<path d="M102.777 72.812C102.718 72.6549 102.64 72.38 102.581 72.223C102.522 72.0266 102.62 71.9285 102.876 71.9285C103.091 71.9285 103.268 72.0463 103.268 72.2033C103.268 72.3604 103.327 72.6156 103.386 72.7923C103.465 73.0083 103.406 73.1065 103.19 73.1065C103.013 73.1065 102.817 72.969 102.777 72.812Z" fill="white"/>
<path d="M103.821 72.3211C103.723 71.7321 103.939 71.5358 104.646 71.5358C104.862 71.5358 105.038 71.7321 105.117 72.0659C105.274 72.6352 105.019 72.9101 104.332 72.9101C104.018 72.9101 103.88 72.7727 103.821 72.3211Z" fill="white"/>
<path d="M101.809 72.4195C101.436 72.125 101.436 72.125 101.848 72.125C102.104 72.125 102.28 72.2428 102.28 72.4195C102.28 72.7729 102.28 72.7729 101.809 72.4195Z" fill="white"/>
<path d="M105.758 72.3995C105.503 72.1442 105.621 71.3785 105.935 71.2607C106.504 71.0448 106.76 71.1429 106.877 71.6534C106.956 71.9479 106.995 72.2031 106.956 72.2228C106.799 72.3995 105.876 72.5173 105.758 72.3995Z" fill="white"/>
<path d="M107.51 71.9873C107.451 71.9284 107.393 71.6732 107.393 71.4376C107.393 71.1038 107.55 70.9664 108.021 70.8682C108.433 70.7897 108.688 70.829 108.806 70.986C109.003 71.3002 109.003 71.6928 108.826 71.791C108.472 71.9873 107.648 72.1051 107.51 71.9873Z" fill="white"/>
<path d="M100.905 71.3789C100.905 71.1433 101.082 70.947 101.337 70.8881C101.848 70.7506 101.828 70.731 101.926 71.2415C101.965 71.536 101.867 71.6538 101.455 71.693C101.023 71.7519 100.905 71.6734 100.905 71.3789Z" fill="white"/>
<path d="M102.405 71.3984C102.13 71.1039 102.307 70.5542 102.68 70.5542C102.935 70.5542 103.073 70.6916 103.073 70.9272C103.073 71.3003 102.621 71.6144 102.405 71.3984Z" fill="white"/>
<path d="M103.584 70.809C103.427 70.436 103.761 70.1611 104.409 70.1611C104.703 70.1611 104.841 70.2789 104.841 70.5342C104.841 70.7501 104.664 70.9465 104.409 71.025C103.761 71.1821 103.722 71.1821 103.584 70.809Z" fill="white"/>
<path d="M109.252 70.7505C109.311 70.6524 109.41 70.5542 109.468 70.5542C109.527 70.5542 109.508 70.6524 109.449 70.7505C109.39 70.8683 109.292 70.9469 109.233 70.9469C109.174 70.9469 109.194 70.8683 109.252 70.7505Z" fill="white"/>
<path d="M105.353 70.417C105.196 70.0243 105.393 69.828 106.021 69.7298C106.374 69.6906 106.531 69.7691 106.571 70.044C106.708 70.6918 105.589 71.0452 105.353 70.417Z" fill="white"/>
<path d="M100.638 70.0822C100.462 69.4343 100.501 69.3754 101.011 69.3754C101.286 69.3754 101.502 69.4539 101.502 69.5521C101.502 69.6502 101.561 69.8662 101.62 70.0233C101.679 70.2196 101.561 70.3374 101.227 70.3963C100.854 70.4748 100.717 70.3963 100.638 70.0822Z" fill="white"/>
<path d="M107.191 69.8664C107.191 69.513 107.329 69.3559 107.702 69.2578C108.252 69.1203 108.566 69.3952 108.566 70.0235C108.566 70.2787 108.409 70.3572 107.879 70.3572C107.27 70.3572 107.191 70.2983 107.191 69.8664Z" fill="white"/>
<path d="M100.053 69.8664C99.9942 69.7093 100.033 69.5719 100.132 69.5719C100.249 69.5719 100.328 69.7093 100.328 69.8664C100.328 70.0235 100.289 70.1609 100.249 70.1609C100.21 70.1609 100.132 70.0235 100.053 69.8664Z" fill="white"/>
<path d="M102.031 70.0241C101.756 69.7689 101.913 69.2192 102.266 69.121C102.482 69.0621 102.698 69.0817 102.757 69.1406C102.993 69.3566 102.855 69.926 102.561 70.0438C102.188 70.1812 102.188 70.1812 102.031 70.0241Z" fill="white"/>
<path d="M109.044 69.8862C108.828 69.3169 109.064 68.8849 109.614 68.826C110.026 68.7671 110.144 68.8457 110.144 69.1598C110.144 69.8077 109.928 70.1611 109.535 70.1611C109.319 70.1611 109.103 70.0433 109.044 69.8862Z" fill="white"/>
<path d="M103.398 69.6305C103.162 69.4146 103.24 69.0219 103.574 68.9041C103.947 68.7667 104.733 69.1593 104.517 69.3753C104.242 69.6109 103.535 69.7876 103.398 69.6305Z" fill="white"/>
<path d="M105.111 69.1406C104.934 68.8657 105.562 68.3945 106.073 68.3945C106.308 68.3945 106.406 68.5123 106.367 68.7283C106.289 69.121 105.287 69.4351 105.111 69.1406Z" fill="white"/>
<path d="M99.7261 69.0032C99.7261 68.905 99.6672 68.6891 99.6083 68.5124C99.5494 68.3357 99.5691 68.1982 99.6869 68.1982C99.9421 68.1982 100.138 68.9443 99.9028 69.1014C99.8047 69.1603 99.7261 69.121 99.7261 69.0032Z" fill="white"/>
<path d="M100.259 68.5515C100.141 68.1196 100.376 67.8054 100.828 67.8054C101.083 67.8054 101.338 68.5711 101.181 68.8264C100.965 69.1601 100.357 68.9638 100.259 68.5515Z" fill="white"/>
<path d="M101.633 68.6499C101.339 68.3554 101.516 67.6486 101.908 67.5504C102.203 67.4719 102.36 67.57 102.517 67.9234C102.635 68.1787 102.694 68.4339 102.654 68.4732C102.458 68.6499 101.751 68.7873 101.633 68.6499Z" fill="white"/>
<path d="M106.936 68.6496C106.681 68.3943 106.798 68.2373 107.387 68.0213C107.878 67.8642 108.016 67.8839 108.114 68.1195C108.291 68.5907 107.309 69.0422 106.936 68.6496Z" fill="white"/>
<path d="M108.669 68.1984C108.473 67.8842 108.748 67.6094 109.258 67.6094C109.867 67.6094 110.043 68.1198 109.494 68.2769C108.905 68.434 108.807 68.4143 108.669 68.1984Z" fill="white"/>
<path d="M110.336 67.7269C110.336 67.4324 110.689 67.1182 110.846 67.2753C110.984 67.4127 110.709 68.0017 110.513 68.0017C110.414 68.0017 110.336 67.8839 110.336 67.7269Z" fill="white"/>
<path d="M99.4732 67.4714C99.3946 67.4125 99.3357 67.1572 99.3554 66.9413C99.3554 66.5682 99.375 66.5682 99.5517 67.0002C99.748 67.4714 99.7088 67.707 99.4732 67.4714Z" fill="white"/>
<path d="M99.8566 67.1776C99.6799 66.4904 99.6996 66.4315 100.21 66.4315C100.779 66.4315 101.133 67.158 100.701 67.4328C100.249 67.7077 99.9941 67.6291 99.8566 67.1776Z" fill="white"/>
<path d="M106.607 67.5689C106.607 67.51 106.706 67.1959 106.823 66.8425C107.098 66.0572 107.707 66.0179 107.844 66.7836C107.903 67.0781 107.923 67.3333 107.903 67.353C107.805 67.4708 106.607 67.6475 106.607 67.5689Z" fill="white"/>
<path d="M101.241 67.0788C101.162 67.0199 101.104 66.7843 101.104 66.5683C101.104 66.2542 101.162 66.2345 101.398 66.4309C101.555 66.5683 101.693 66.8039 101.693 66.9413C101.693 67.2358 101.457 67.3144 101.241 67.0788Z" fill="white"/>
<path d="M108.318 66.6867C108.2 66.0781 108.455 65.8032 109.064 65.8818C109.359 65.921 109.457 66.0977 109.457 66.5297C109.457 67.0205 109.378 67.1383 108.946 67.1776C108.514 67.2365 108.416 67.1383 108.318 66.6867Z" fill="white"/>
<path d="M110.23 66.7656C109.975 65.9803 110.054 65.7447 110.584 65.6858C111.055 65.6269 111.114 65.6858 111.114 66.1962C111.114 66.6282 110.996 66.8049 110.701 66.8834C110.485 66.9423 110.269 66.8834 110.23 66.7656Z" fill="white"/>
<path d="M99.1826 65.6452C99.1826 65.2722 99.2219 65.1151 99.2808 65.3115C99.3201 65.4882 99.3201 65.8023 99.2808 65.9986C99.2219 66.1753 99.1826 66.0183 99.1826 65.6452Z" fill="white"/>
<path d="M99.6703 65.9014C99.4151 65.6658 99.5329 64.9001 99.847 64.7823C100.299 64.6056 100.515 64.8216 100.515 65.4695C100.515 65.8818 100.416 66.0389 100.161 66.0389C99.9648 66.0389 99.7292 65.98 99.6703 65.9014Z" fill="white"/>
<path d="M100.85 65.3716C100.771 65.0771 100.732 64.763 100.81 64.7041C101.007 64.5078 101.125 64.8219 101.066 65.3913L101.007 65.941L100.85 65.3716Z" fill="white"/>
<path d="M107.191 65.2335C107.191 65.0175 107.29 64.8997 107.388 64.9586C107.506 65.0175 107.584 65.2138 107.584 65.3709C107.584 65.528 107.506 65.6458 107.388 65.6458C107.29 65.6458 107.191 65.4691 107.191 65.2335Z" fill="white"/>
<path d="M108.077 65.489C107.802 65.1945 108.018 64.6644 108.47 64.5466C109.039 64.4092 109.059 64.4092 109.235 64.9785C109.353 65.3319 109.274 65.4104 108.764 65.489C108.45 65.5479 108.136 65.5282 108.077 65.489Z" fill="white"/>
<path d="M109.88 65.1158C109.664 64.9194 109.723 64.2715 109.939 64.2715C110.057 64.2715 110.135 64.193 110.135 64.0752C110.135 63.977 110.017 63.8789 109.86 63.8789C109.526 63.8789 109.252 62.9168 109.526 62.642C109.88 62.2886 110.273 62.6616 110.508 63.6236C110.646 64.1341 110.783 64.7231 110.842 64.9194C110.92 65.1747 110.842 65.2532 110.469 65.2532C110.214 65.2532 109.939 65.1943 109.88 65.1158Z" fill="white"/>
<path d="M110.942 64.0752C110.805 63.4862 110.451 62.3082 110.196 61.4444C109.803 60.1878 109.764 59.8737 109.98 59.7363C110.117 59.6381 110.294 59.5596 110.353 59.5596C110.569 59.5596 111.354 63.5844 111.276 64.3697L111.217 65.1551L110.942 64.0752Z" fill="white"/>
<path d="M98.9922 63.9773C98.9922 63.6632 99.0315 63.5454 99.0904 63.7417C99.1296 63.9184 99.1296 64.1933 99.0904 64.3307C99.0315 64.4485 98.9922 64.3111 98.9922 63.9773Z" fill="white"/>
<path d="M99.3733 63.9376C99.4518 63.2505 100.021 63.0934 100.178 63.7217C100.316 64.2321 100.355 64.1732 99.7659 64.3696C99.3536 64.4874 99.3144 64.4481 99.3733 63.9376Z" fill="white"/>
<path d="M107.661 63.7607C107.504 63.1913 107.837 62.8575 108.466 62.9361C108.937 62.995 109.113 63.8392 108.721 64.0944C108.23 64.4086 107.778 64.2711 107.661 63.7607Z" fill="white"/>
<path d="M100.52 63.6036C100.52 63.2698 100.618 63.0931 100.834 63.0931C101.03 63.0931 101.109 63.2306 101.069 63.5251C100.971 64.1533 100.52 64.2122 100.52 63.6036Z" fill="white"/>
<path d="M98.7714 62.7793C98.7714 62.5633 98.8303 62.5044 98.8892 62.6615C98.9481 62.7989 98.9285 62.9756 98.8696 63.0345C98.8107 63.1131 98.7518 62.9953 98.7714 62.7793Z" fill="white"/>
<path d="M99.1504 62.7206C99.1504 62.4261 99.2682 62.3083 99.5627 62.3083C99.8376 62.3083 99.9357 62.4065 99.8965 62.6421C99.7983 63.1526 99.1504 63.2115 99.1504 62.7206Z" fill="white"/>
<path d="M100.224 62.5439C100.087 62.1905 100.087 62.1905 100.676 62.0334C101.029 61.9156 101.108 61.9745 101.108 62.269C101.108 62.7402 100.401 62.9758 100.224 62.5439Z" fill="white"/>
<path d="M107.338 62.2693C107.2 61.7784 107.455 61.5232 108.143 61.5232C108.476 61.5232 108.575 61.641 108.575 62.014C108.575 62.3085 108.457 62.5049 108.3 62.5049C108.143 62.5049 107.887 62.5638 107.73 62.6227C107.554 62.6816 107.416 62.5638 107.338 62.2693Z" fill="white"/>
<path d="M109.037 61.8175C108.88 61.4249 109.115 61.1304 109.567 61.1304C109.842 61.1304 109.94 61.2678 109.94 61.6212C109.94 61.9746 109.842 62.112 109.547 62.112C109.331 62.112 109.096 61.9746 109.037 61.8175Z" fill="white"/>
<path d="M98.9473 61.5426C98.9473 61.1303 99.3988 60.6591 99.5952 60.8751C99.6737 60.934 99.7326 61.2088 99.7326 61.4641C99.7326 61.7782 99.6148 61.9156 99.3399 61.9156C99.0847 61.9156 98.9473 61.7782 98.9473 61.5426Z" fill="white"/>
<path d="M100.034 61.3073C99.8769 60.8165 100.054 60.6005 100.721 60.5024C101.33 60.4238 101.526 61.0717 100.996 61.4644C100.486 61.8374 100.171 61.7785 100.034 61.3073Z" fill="white"/>
<path d="M107.13 61.1892C106.993 61.0714 106.934 60.345 107.051 60.345C107.071 60.345 107.366 60.2664 107.719 60.1683C108.308 59.9916 108.347 60.0112 108.328 60.5413C108.308 60.934 108.19 61.1303 107.896 61.2088C107.366 61.3463 107.287 61.3463 107.13 61.1892Z" fill="white"/>
<path d="M106.404 60.7365C106.404 60.599 106.463 60.5401 106.542 60.599C106.601 60.6776 106.601 60.7954 106.542 60.8739C106.463 60.9328 106.404 60.8739 106.404 60.7365Z" fill="white"/>
<path d="M108.608 60.4235C108.666 60.0898 109.275 59.5989 109.413 59.756C109.471 59.8149 109.57 60.0505 109.628 60.3057C109.766 60.6984 109.707 60.7377 109.157 60.7377C108.686 60.7377 108.549 60.6591 108.608 60.4235Z" fill="white"/>
<path d="M99.1504 60.4035C99.1504 60.3053 99.2486 60.109 99.3467 59.9519C99.5038 59.7163 99.5431 59.7359 99.5431 60.109C99.5431 60.3446 99.4645 60.5409 99.3467 60.5409C99.2486 60.5409 99.1504 60.482 99.1504 60.4035Z" fill="white"/>
<path d="M99.7344 59.9714C99.7344 59.4217 100.147 59.245 100.461 59.6573C100.657 59.9518 100.657 60.05 100.461 60.1874C100.049 60.4426 99.7344 60.3641 99.7344 59.9714Z" fill="white"/>
<path d="M105.707 59.7156C105.354 59.3229 105.354 59.3033 105.687 59.4211C105.884 59.4996 106.139 59.5585 106.237 59.5585C106.335 59.5585 106.414 59.6959 106.414 59.853C106.414 60.2653 106.139 60.226 105.707 59.7156Z" fill="white"/>
<path d="M101.477 59.6965C100.633 59.0486 100.515 57.5957 101.3 57.5957C101.83 57.5957 102.321 58.4203 102.243 59.186C102.184 59.8928 101.948 60.0499 101.477 59.6965Z" fill="white"/>
<path d="M106.855 59.8149C106.933 59.756 107.051 59.756 107.13 59.8149C107.189 59.8935 107.13 59.9524 106.992 59.9524C106.855 59.9524 106.796 59.8935 106.855 59.8149Z" fill="white"/>
<path d="M109.83 59.0485C109.889 58.8718 109.948 58.6951 109.948 58.6558C109.948 58.6165 110.046 58.5773 110.144 58.5773C110.262 58.5773 110.341 58.754 110.341 58.9699C110.341 59.2055 110.203 59.3626 110.026 59.3626C109.81 59.3626 109.752 59.2644 109.83 59.0485Z" fill="white"/>
<path d="M99.5312 58.9897C99.5312 58.5382 99.9435 57.7921 100.179 57.7921C100.591 57.7921 100.297 59.0486 99.865 59.1272C99.6883 59.1664 99.5312 59.1075 99.5312 58.9897Z" fill="white"/>
<path d="M103.96 58.7742L103.371 58.6367L103.901 58.4993C104.451 58.3422 104.844 58.46 104.844 58.7938C104.844 58.9901 104.824 58.9901 103.96 58.7742Z" fill="white"/>
<path d="M103.26 57.8316C103.26 57.0266 103.711 56.9088 104.124 57.6156C104.398 58.0868 104.418 58.185 104.163 58.185C104.006 58.185 103.751 58.2439 103.574 58.3028C103.338 58.4009 103.26 58.2831 103.26 57.8316Z" fill="white"/>
<path d="M106.688 58.1062C105.805 57.7135 105.235 56.6729 105.235 55.436C105.235 54.5525 105.314 54.3366 105.844 53.8457C106.178 53.5316 106.512 53.2764 106.61 53.2764C107.042 53.2764 108.632 54.7881 109.162 55.7305L109.771 56.8104L109.123 57.4975C108.377 58.2829 107.552 58.4988 106.688 58.1062Z" fill="white"/>
<path d="M102.577 57.5962C102.519 57.4981 102.558 57.3999 102.656 57.3999C102.774 57.3999 102.872 57.4981 102.872 57.5962C102.872 57.714 102.833 57.7926 102.793 57.7926C102.735 57.7926 102.636 57.714 102.577 57.5962Z" fill="white"/>
<path d="M100.009 57.2822C100.068 57.1055 100.127 56.9288 100.127 56.8896C100.127 56.8503 100.303 56.811 100.519 56.811C101.01 56.811 101.03 57.1252 100.539 57.4C100.009 57.6749 99.8714 57.6553 100.009 57.2822Z" fill="white"/>
<path d="M101.554 57.0463C101.102 56.9874 100.965 56.7322 101.259 56.5555C101.338 56.4966 101.691 56.3984 102.044 56.3199C102.575 56.2021 102.673 56.2414 102.673 56.5751C102.673 56.9874 102.26 57.1641 101.554 57.0463Z" fill="white"/>
<path d="M103.071 56.3789C103.071 56.1433 103.091 56.0058 103.13 56.0451C103.15 56.0844 103.307 56.2807 103.444 56.477C103.68 56.7519 103.66 56.8108 103.385 56.8108C103.189 56.8108 103.071 56.6537 103.071 56.3789Z" fill="white"/>
<path d="M100.318 56.2419C100.318 56.1241 100.417 55.9867 100.515 55.9278C100.632 55.8689 100.711 55.9474 100.711 56.1045C100.711 56.2812 100.632 56.4186 100.515 56.4186C100.417 56.4186 100.318 56.3401 100.318 56.2419Z" fill="white"/>
<path d="M101.049 55.947C100.892 55.5543 102.286 55.1224 102.522 55.4954C102.699 55.8095 102.522 55.947 101.776 56.104C101.324 56.2022 101.128 56.1629 101.049 55.947Z" fill="white"/>
<path d="M102.893 55.3188C102.893 55.1029 102.952 55.044 103.011 55.201C103.07 55.3385 103.051 55.5152 102.992 55.5741C102.933 55.6526 102.874 55.5348 102.893 55.3188Z" fill="white"/>
<path d="M101.219 55.0045C101.454 54.5725 102.142 53.8657 102.318 53.8657C102.515 53.8657 102.534 54.7885 102.338 54.9063C102.24 54.9456 101.926 55.0437 101.631 55.1223C101.199 55.2204 101.101 55.2008 101.219 55.0045Z" fill="white"/>
<path d="M102.796 54.5532C102.58 53.9642 102.678 53.709 103.149 53.6305C103.64 53.5323 103.64 53.5323 103.326 54.1409C102.933 54.9263 102.953 54.9263 102.796 54.5532Z" fill="white"/>
<path d="M102.676 53.3755C102.676 53.3363 103.068 53.0614 103.559 52.7865C104.148 52.4331 104.561 52.3153 104.855 52.3939C105.208 52.5117 105.11 52.5902 104.246 53.0025C103.284 53.4344 102.676 53.5915 102.676 53.3755Z" fill="white"/>
<path d="M113.568 35.9798C113.038 35.2141 111.919 33.9772 111.114 33.2312C110.309 32.4851 109.779 31.8765 109.936 31.8765C110.368 31.8765 113.666 32.7796 114.491 33.133C115.178 33.4275 115.198 33.4668 115.021 34.0754C114.923 34.4288 114.844 35.3123 114.844 36.0387C114.844 36.7848 114.785 37.3738 114.707 37.3738C114.609 37.3738 114.118 36.7455 113.568 35.9798Z" fill="white"/>
<path d="M73.6275 95.4497C72.8225 95.0374 72.6458 94.8018 71.6249 92.7795C70.1524 89.9131 70.1131 89.2455 71.5071 90.8751C72.0568 91.523 73.333 92.8581 74.3343 93.8397C76.0424 95.4889 76.1209 95.6067 75.5515 95.5282C75.1392 95.4693 74.9822 95.5086 75.0803 95.6656C75.3159 96.019 74.5699 95.9209 73.6275 95.4497Z" fill="white"/>
<path fill-rule="evenodd" clip-rule="evenodd" d="M106.521 131.218C106.358 130.831 106.54 130.385 106.927 130.222L107.35 130.043C111.462 128.283 113.823 127.226 115.427 125.548C117.031 123.869 117.223 121.404 117.524 119.904C117.607 119.492 118.539 120.215 118.951 120.298C119.362 120.38 119.629 120.781 119.547 121.193C119.184 122.997 118.209 124.716 116.638 126.348C115.072 127.975 112.042 129.719 107.517 131.624C107.13 131.787 106.684 131.605 106.521 131.218Z" fill="#00160A"/>
<path fill-rule="evenodd" clip-rule="evenodd" d="M125.128 52.8818C125.488 52.667 125.955 52.7854 126.17 53.1462C128.321 56.759 129.473 60.889 129.473 65.1858C129.473 78.2033 118.92 88.7561 105.902 88.7561C102.443 88.7561 99.0884 88.01 96.0162 86.5886C95.6351 86.4123 94.1954 85.0083 95.6454 85.5793C97.0953 86.1503 102.705 87.432 105.943 87.432C118.12 87.432 126.735 77.3635 126.735 65.1858C126.735 61.1647 125.128 57.5955 124.863 53.924C124.833 53.4984 124.767 53.0966 125.128 52.8818Z" fill="#00160A"/>
<path fill-rule="evenodd" clip-rule="evenodd" d="M49.8168 110.426C50.0855 110.104 50.5649 109.452 50.8876 109.72C52.2112 110.823 53.6237 112.1 55.1346 112.347C56.7068 112.603 58.5721 112.603 60.7278 112.342C61.1447 112.292 61.5236 112.589 61.574 113.006C61.6245 113.423 61.3275 113.802 60.9106 113.852C58.6213 114.129 56.6151 114.129 54.8897 113.848C53.1029 113.556 51.4413 112.769 49.9144 111.497C49.5917 111.228 49.548 110.749 49.8168 110.426Z" fill="#00160A"/>
<path d="M65.9686 83.8268C64.9869 83.0415 62.8862 80.7247 61.2959 78.6829C60.4713 77.603 59.5485 75.4041 58.9988 73.1855C58.7435 72.1843 58.4883 71.2811 58.4294 71.1633C58.3509 71.0652 58.0367 69.6712 57.7226 68.0613C57.2514 65.7838 57.3511 65.0501 56.9373 62.3259C56.7621 61.1725 56.6035 60.2547 56.6035 60.2547L57.114 59.5993C57.4085 59.2066 57.781 58.5569 57.9189 58.1857C58.5472 56.4952 63.161 51.1962 63.2985 51.3337C63.3377 51.3729 63.1807 52.2957 62.9058 53.3755C62.6506 54.4554 62.3364 56.0849 62.199 57.0077C62.0027 58.5391 61.9241 58.7158 61.3155 59.2263C60.5498 59.8742 59.0969 61.9553 59.0969 62.3872C59.0969 62.9762 59.9804 62.5836 60.9032 61.6215L61.8456 60.6399V61.7197C61.8456 62.4265 61.7082 63.0744 61.4529 63.5849C60.9621 64.5469 60.9621 65.5678 61.4333 66.3532C61.6689 66.7458 61.8849 67.6882 62.0223 68.8073C62.6309 73.8727 63.9267 78.2706 66.1453 82.6881C66.695 83.7875 67.127 84.6907 67.1073 84.6907C67.0681 84.6907 66.5576 84.298 65.9686 83.8268Z" fill="white"/>
<path fill-rule="evenodd" clip-rule="evenodd" d="M147.66 95.9404L149.074 96.5687C149.367 96.704 152.6 98.2577 156.485 100.124C162.747 103.133 170.7 106.955 170.749 106.955C170.827 106.955 171.196 106.103 171.279 105.109C171.475 102.969 172.202 100.063 173.046 98.0412C173.439 97.1381 173.753 96.0093 173.753 95.9112C173.753 95.8664 173.434 95.7376 172.911 95.5268C172.289 95.2759 171.379 94.9088 170.376 94.4287C165.428 92.053 155.749 87.2036 154.551 86.4772C153.373 85.79 153.138 85.7311 153.138 86.1827C153.138 86.7717 151.94 89.5007 151.017 90.9732C150.527 91.7782 149.565 93.231 148.877 94.1931L147.66 95.9404ZM170.412 103.419C170.975 103.745 170 104.224 169.764 104.303C168.377 104.42 166.744 104.16 165.406 103.38C164.706 102.884 159.197 99.8231 155.542 97.7928C153.872 96.8646 152.588 96.1518 152.33 95.9978C151.505 95.507 150.72 94.9769 150.582 94.8198C150.17 94.2897 150.563 94.0541 151.721 94.1523C152.418 94.2113 169.196 102.714 170.412 103.419Z" fill="white"/>
<path d="M133.559 97.7069C133.049 97.5302 132.499 97.1376 132.146 96.686L131.557 95.9596L133.638 93.8981C136.838 90.7568 139.194 87.3237 141.314 83.4952C142.021 82.219 144.122 77.0723 144.377 76.503C144.77 75.6784 145.064 75.3642 145.909 74.893C146.91 74.304 148.049 74.1077 148.539 74.4415C149.482 75.0697 149.482 77.0527 148.539 80.4689C147.499 84.2189 146.105 86.9086 143.219 90.7764C142.767 91.3654 141.923 92.5238 141.314 93.3287C139.685 95.4884 138.625 96.5289 137.191 97.3339C135.778 98.1192 134.953 98.2174 133.559 97.7069Z" fill="white"/>
<path d="M140.963 97.2537L140.551 96.8414C140.551 96.8414 147.394 88.1472 148.62 84.9437C149.556 82.4989 150.107 81.8057 150.85 81.8057C151.265 81.8057 151.604 81.9005 151.761 82.1361C152.036 82.5484 152.301 83.0589 151.948 84.8062C151.359 87.6334 150.456 89.4986 147.746 93.5234C147.118 94.4462 146.313 95.4671 145.96 95.8205C145.135 96.5862 143.28 97.3715 142.2 97.5482C141.513 97.6464 141.316 97.6071 140.963 97.2537Z" fill="white"/>
<path fill-rule="evenodd" clip-rule="evenodd" d="M152.451 88.1645C152.847 87.2587 153.129 86.4686 153.129 86.1827C153.129 85.7311 153.365 85.79 154.543 86.4772C155.741 87.2036 165.42 92.053 170.367 94.4287C172.213 95.3122 173.744 95.813 173.744 95.9112C173.744 96.0093 152.032 89.1249 152.451 88.1645Z" fill="#E7EAEE"/>
<path fill-rule="evenodd" clip-rule="evenodd" d="M85.2814 89.2849C82.7879 87.6554 79.0184 83.8269 77.1925 81.0978C74.5812 77.1712 72.8535 72.9696 72.0093 68.454C71.4006 65.1752 71.4203 60.1295 72.0289 57.2041C72.6572 54.2198 73.4621 51.9424 74.8954 49.0563C76.5642 45.7186 78.3312 43.2644 80.9817 40.6139C83.5808 38.0148 72.0289 48.7634 74.8954 67.995C77.1925 84.1111 87.0645 90.4598 85.2814 89.2849Z" fill="#E7EAEE"/>
<defs>
<filter id="filter0_f" x="0" y="0.881836" width="240" height="196.859" filterUnits="userSpaceOnUse" color-interpolation-filters="sRGB">
<feFlood flood-opacity="0" result="BackgroundImageFix"/>
<feBlend mode="normal" in="SourceGraphic" in2="BackgroundImageFix" result="shape"/>
<feGaussianBlur stdDeviation="14" result="effect1_foregroundBlur"/>
</filter>
</defs>
</svg>
