<svg width="20" height="20" viewBox="0 0 20 20" fill="none" xmlns="http://www.w3.org/2000/svg">
<path d="M14.959 17.917C14.3616 17.917 13.8616 17.712 13.459 17.302C13.0563 16.8927 12.855 16.3893 12.855 15.792C12.855 15.6807 12.8653 15.5693 12.886 15.458C12.9073 15.3473 12.9386 15.2363 12.98 15.125L6.62597 11.417C6.4173 11.639 6.17764 11.816 5.90697 11.948C5.6363 12.08 5.3483 12.146 5.04297 12.146C4.44564 12.146 3.94197 11.9377 3.53197 11.521C3.12264 11.1043 2.91797 10.6043 2.91797 10.021C2.91797 9.42367 3.12264 8.92 3.53197 8.51C3.94197 8.10067 4.44564 7.896 5.04297 7.896C5.3483 7.896 5.6363 7.95834 5.90697 8.083C6.17764 8.20834 6.4173 8.382 6.62597 8.604L12.98 4.875C12.9386 4.77767 12.904 4.67367 12.876 4.563C12.848 4.45167 12.834 4.34034 12.834 4.229C12.834 3.63167 13.0423 3.12834 13.459 2.719C13.8756 2.309 14.3756 2.104 14.959 2.104C15.5563 2.104 16.06 2.31234 16.47 2.729C16.8793 3.14567 17.084 3.64567 17.084 4.229C17.084 4.82634 16.8793 5.33 16.47 5.74C16.06 6.14934 15.5563 6.354 14.959 6.354C14.6536 6.354 14.369 6.288 14.105 6.156C13.841 6.024 13.605 5.847 13.397 5.625L7.04297 9.354C7.0843 9.45134 7.1153 9.559 7.13597 9.677C7.1573 9.795 7.16797 9.90267 7.16797 10C7.16797 10.1113 7.1573 10.226 7.13597 10.344C7.1153 10.462 7.0843 10.5697 7.04297 10.667L13.418 14.396C13.612 14.1733 13.841 13.9963 14.105 13.865C14.369 13.733 14.6536 13.667 14.959 13.667C15.5563 13.667 16.06 13.8753 16.47 14.292C16.8793 14.7087 17.084 15.2087 17.084 15.792C17.084 16.3893 16.8756 16.8927 16.459 17.302C16.0423 17.712 15.5423 17.917 14.959 17.917ZM14.959 5.438C15.2923 5.438 15.577 5.31967 15.813 5.083C16.0496 4.847 16.168 4.56234 16.168 4.229C16.168 3.89567 16.0496 3.611 15.813 3.375C15.577 3.139 15.2923 3.021 14.959 3.021C14.6256 3.021 14.341 3.139 14.105 3.375C13.869 3.611 13.751 3.89567 13.751 4.229C13.751 4.56234 13.869 4.847 14.105 5.083C14.341 5.31967 14.6256 5.438 14.959 5.438ZM5.04297 11.229C5.3763 11.229 5.66097 11.111 5.89697 10.875C6.13297 10.639 6.25097 10.3543 6.25097 10.021C6.25097 9.68767 6.13297 9.403 5.89697 9.167C5.66097 8.93034 5.3763 8.812 5.04297 8.812C4.70964 8.812 4.42497 8.93034 4.18897 9.167C3.9523 9.403 3.83397 9.68767 3.83397 10.021C3.83397 10.3543 3.9523 10.639 4.18897 10.875C4.42497 11.111 4.70964 11.229 5.04297 11.229ZM14.959 17C15.2923 17 15.577 16.882 15.813 16.646C16.0496 16.41 16.168 16.1253 16.168 15.792C16.168 15.4587 16.0496 15.174 15.813 14.938C15.577 14.7013 15.2923 14.583 14.959 14.583C14.6256 14.583 14.341 14.7013 14.105 14.938C13.869 15.174 13.751 15.4587 13.751 15.792C13.751 16.1253 13.869 16.41 14.105 16.646C14.341 16.882 14.6256 17 14.959 17Z" fill="black"/>
</svg>
