<svg width="32" height="32" viewBox="0 0 32 32" fill="none" xmlns="http://www.w3.org/2000/svg">
<path d="M5.81256 13.6068V27.4349C5.81256 27.6835 5.91133 27.922 6.08715 28.0978C6.26296 28.2736 6.50142 28.3724 6.75006 28.3724H12.3751V20.4036C12.3751 20.0307 12.5232 19.673 12.7869 19.4093C13.0507 19.1455 13.4084 18.9974 13.7813 18.9974H18.4688C18.8418 18.9974 19.1995 19.1455 19.4632 19.4093C19.7269 19.673 19.8751 20.0307 19.8751 20.4036V28.3724H25.5001C25.7487 28.3724 25.9872 28.2736 26.163 28.0978C26.3388 27.922 26.4376 27.6835 26.4376 27.4349V13.6068" stroke="black" stroke-width="1.5" stroke-linecap="round" stroke-linejoin="round"/>
<path d="M29.25 16.1865L16.7631 4.23335C16.4701 3.92398 15.7852 3.92046 15.4869 4.23335L3 16.1865" stroke="black" stroke-width="1.5" stroke-linecap="round" stroke-linejoin="round"/>
<path d="M24.5624 11.6734V4.93514H21.7499V8.97811" stroke="black" stroke-width="1.5" stroke-linecap="round" stroke-linejoin="round"/>
</svg>
