<svg width="24" height="24" viewBox="0 0 24 24" fill="none" xmlns="http://www.w3.org/2000/svg">
<g clip-path="url(#clip0)">
<path d="M18.8436 7.87524C18.7063 9.78165 17.2921 11.2502 15.7499 11.2502C14.2077 11.2502 12.7911 9.78212 12.6561 7.87524C12.5155 5.89196 13.8922 4.50024 15.7499 4.50024C17.6075 4.50024 18.9842 5.92806 18.8436 7.87524Z" stroke="#181818" stroke-width="1.5" stroke-linecap="round" stroke-linejoin="round"/>
<path d="M15.7501 14.25C12.6952 14.25 9.75756 15.7673 9.02162 18.7223C8.92412 19.1133 9.16928 19.5 9.571 19.5H21.9296C22.3313 19.5 22.5751 19.1133 22.479 18.7223C21.743 15.72 18.8054 14.25 15.7501 14.25Z" stroke="#181818" stroke-width="1.5" stroke-miterlimit="10"/>
<path d="M9.37496 8.71618C9.26527 10.2387 8.12246 11.4377 6.89058 11.4377C5.65871 11.4377 4.51402 10.2391 4.40621 8.71618C4.29418 7.13227 5.40652 6.00024 6.89058 6.00024C8.37464 6.00024 9.48699 7.16134 9.37496 8.71618Z" stroke="#181818" stroke-width="1.5" stroke-linecap="round" stroke-linejoin="round"/>
<path d="M9.65622 14.3441C8.81012 13.9564 7.87825 13.8074 6.89059 13.8074C4.45309 13.8074 2.10466 15.0191 1.51638 17.3792C1.43903 17.6914 1.63497 18.0003 1.9556 18.0003H7.21872" stroke="#181818" stroke-width="1.5" stroke-miterlimit="10" stroke-linecap="round"/>
</g>
<defs>
<clipPath id="clip0">
<rect width="24" height="24" fill="white"/>
</clipPath>
</defs>
</svg>
