<svg width="23" height="23" viewBox="0 0 24 24" fill="none" xmlns="http://www.w3.org/2000/svg">
<path d="M20.6399 11.1925C20.5641 11.193 20.4889 11.1784 20.4187 11.1498C20.3486 11.1211 20.2847 11.0788 20.2309 11.0254L12.9769 3.7715C12.8825 3.66127 12.8332 3.51949 12.8388 3.37449C12.8444 3.22948 12.9045 3.09192 13.0071 2.98931C13.1097 2.8867 13.2473 2.82659 13.3923 2.82099C13.5373 2.81539 13.6791 2.86471 13.7893 2.9591L21.049 10.213C21.1283 10.2939 21.182 10.3964 21.2034 10.5076C21.2248 10.6188 21.2129 10.7339 21.1692 10.8384C21.1256 10.9429 21.0521 11.0323 20.958 11.0952C20.8638 11.1582 20.7532 11.1921 20.6399 11.1925Z" fill="black"/>
<path d="M18.0584 10.5991L17.246 9.78669L13.0976 13.9351C13.0235 14.009 12.971 14.1017 12.9456 14.2032C12.9202 14.3047 12.923 14.4112 12.9536 14.5113C13.188 15.3023 13.2304 16.1379 13.0771 16.9486C12.9237 17.7593 12.5792 18.5217 12.072 19.1725L4.84113 11.93C5.49191 11.4229 6.25431 11.0783 7.06501 10.925C7.8757 10.7717 8.71128 10.814 9.50232 11.0485C9.60238 11.0791 9.70888 11.0818 9.81039 11.0564C9.9119 11.0311 10.0046 10.9785 10.0785 10.9045L14.2269 6.75605L13.403 5.94366L9.49079 9.85583C8.44936 9.60474 7.36111 9.62321 6.3288 9.90952C5.29649 10.1958 4.35418 10.7405 3.59084 11.4921C3.53684 11.5457 3.49398 11.6094 3.46473 11.6796C3.43547 11.7499 3.42041 11.8252 3.42041 11.9012C3.42041 11.9773 3.43547 12.0526 3.46473 12.1228C3.49398 12.193 3.53684 12.2567 3.59084 12.3103L7.23798 15.9574L2.94554 20.2384C2.88522 20.29 2.83624 20.3536 2.80165 20.4251C2.76707 20.4965 2.74763 20.5744 2.74457 20.6537C2.74151 20.7331 2.75488 20.8122 2.78384 20.8862C2.81281 20.9601 2.85675 21.0272 2.9129 21.0834C2.96905 21.1395 3.0362 21.1835 3.11013 21.2125C3.18407 21.2414 3.2632 21.2548 3.34255 21.2517C3.4219 21.2487 3.49975 21.2292 3.57124 21.1946C3.64272 21.1601 3.70628 21.1111 3.75793 21.0508L8.04462 16.7641L11.6918 20.4112C11.7456 20.4646 11.8094 20.5069 11.8796 20.5355C11.9498 20.5642 12.025 20.5787 12.1008 20.5783C12.1771 20.578 12.2525 20.5625 12.3227 20.5329C12.3929 20.5032 12.4565 20.4599 12.5099 20.4055C13.2588 19.6403 13.8016 18.6979 14.0878 17.6662C14.3739 16.6345 14.394 15.5471 14.1462 14.5055L18.0584 10.5991Z" fill="black"/>
</svg>
