<svg width="24" height="24" viewBox="0 0 24 24" fill="none" xmlns="http://www.w3.org/2000/svg">
<path d="M12.2721 9.32145C11.704 9.26691 11.1324 9.38439 10.6356 9.65782C10.1388 9.93125 9.74113 10.3473 9.49697 10.8489C9.25281 11.3505 9.17412 11.9132 9.27169 12.46C9.36925 13.0068 9.6383 13.5108 10.042 13.9032C10.4457 14.2956 10.9643 14.5572 11.5268 14.652C12.0893 14.7468 12.6682 14.6704 13.1842 14.433C13.7003 14.1957 14.1283 13.8091 14.4096 13.3262C14.6909 12.8433 14.8117 12.2877 14.7556 11.7355C14.6917 11.1164 14.4095 10.5379 13.9568 10.0979C13.5042 9.65794 12.909 9.38363 12.2721 9.32145V9.32145ZM18.9395 12C18.9377 12.2926 18.9156 12.5847 18.8733 12.8743L20.8293 14.3657C20.9145 14.4343 20.9719 14.53 20.9913 14.6359C21.0107 14.7418 20.9909 14.8509 20.9354 14.9439L19.0849 18.0561C19.0287 18.1482 18.9408 18.2181 18.8368 18.2534C18.7328 18.2887 18.6193 18.2872 18.5163 18.2491L16.5737 17.4887C16.4665 17.4473 16.3505 17.4323 16.236 17.4451C16.1214 17.458 16.0119 17.4983 15.9173 17.5623C15.6208 17.7608 15.3093 17.9371 14.9854 18.0897C14.8835 18.1378 14.7954 18.2096 14.7289 18.2986C14.6623 18.3877 14.6194 18.4913 14.6038 18.6003L14.3126 20.6143C14.2935 20.7207 14.2369 20.8173 14.1526 20.8877C14.0684 20.958 13.9616 20.9977 13.8505 21H10.1495C10.0403 20.9982 9.93494 20.9602 9.85087 20.8924C9.7668 20.8246 9.70899 20.731 9.68698 20.627L9.39624 18.6158C9.37991 18.5056 9.33582 18.401 9.26788 18.3114C9.19995 18.2217 9.11028 18.1498 9.00684 18.1019C8.6833 17.9501 8.37281 17.7733 8.07835 17.5733C7.98407 17.5095 7.87495 17.4696 7.76082 17.457C7.64669 17.4444 7.53115 17.4597 7.42459 17.5014L5.48237 18.2613C5.37944 18.2994 5.26599 18.301 5.16199 18.2657C5.05799 18.2305 4.97011 18.1607 4.91385 18.0687L3.06335 14.9565C3.00772 14.8636 2.98783 14.7544 3.00725 14.6485C3.02666 14.5426 3.0841 14.4469 3.16935 14.3783L4.82256 13.1166C4.91313 13.0467 4.98431 12.9559 5.02965 12.8525C5.07498 12.7491 5.09303 12.6363 5.08216 12.5244C5.06658 12.3491 5.05706 12.1741 5.05706 11.9987C5.05706 11.8234 5.06615 11.6509 5.08216 11.4793C5.09184 11.3681 5.07291 11.2563 5.02706 11.154C4.98121 11.0516 4.9099 10.962 4.81953 10.8931L3.16719 9.6314C3.08332 9.56247 3.02709 9.46705 3.00834 9.36185C2.98959 9.25666 3.00953 9.14841 3.06465 9.05607L4.91515 5.94393C4.97134 5.85182 5.05919 5.78195 5.16319 5.74664C5.2672 5.71132 5.38069 5.71283 5.48367 5.75089L7.42632 6.51126C7.53345 6.55272 7.64949 6.5677 7.76404 6.55486C7.87859 6.54201 7.98807 6.50175 8.08267 6.43766C8.37915 6.23921 8.6907 6.06291 9.01463 5.91028C9.11647 5.86217 9.20455 5.79042 9.2711 5.70138C9.33766 5.61234 9.38063 5.50873 9.39624 5.39972L9.68742 3.38565C9.70654 3.27929 9.76308 3.18268 9.84736 3.11233C9.93164 3.04199 10.0384 3.00229 10.1495 3H13.8505C13.9597 3.00184 14.0651 3.03979 14.1491 3.10759C14.2332 3.1754 14.291 3.26902 14.313 3.37304L14.6038 5.38416C14.6201 5.49437 14.6642 5.59896 14.7321 5.68862C14.8 5.77828 14.8897 5.85023 14.9932 5.89808C15.3167 6.04989 15.6272 6.22667 15.9217 6.42673C16.0159 6.49049 16.1251 6.53045 16.2392 6.543C16.3533 6.55556 16.4689 6.54031 16.5754 6.49865L18.5176 5.73869C18.6206 5.70059 18.734 5.69902 18.838 5.73426C18.942 5.7695 19.0299 5.83928 19.0862 5.93131L20.9366 9.04346C20.9923 9.13644 21.0122 9.24559 20.9928 9.35149C20.9733 9.45739 20.9159 9.55315 20.8306 9.62173L19.1774 10.8834C19.0865 10.9531 19.0149 11.0437 18.9692 11.1472C18.9234 11.2506 18.9051 11.3635 18.9157 11.4756C18.93 11.6497 18.9395 11.8246 18.9395 12Z" stroke="#7F82A2" stroke-linecap="square"/>
</svg>
