<svg width="24" height="24" viewBox="0 0 24 24" fill="none" xmlns="http://www.w3.org/2000/svg">
<path d="M15.75 9H17.625C18.1223 9 19.0001 9.00006 19.5001 9.00008C19.5001 9.50006 19.5 10.3777 19.5 10.875V19.875C19.5 20.3723 19.5 21.0001 19.5 21.75C18.9009 21.75 18.1223 21.75 17.625 21.75H6.37505C5.87777 21.75 5.17119 21.75 4.50005 21.75C4.49989 21.1627 4.50005 20.3723 4.50005 19.875V10.875C4.50005 10.3777 4.49999 9.50006 4.5 9.00008C4.99999 9.00006 5.87777 9 6.37505 9H8.25005" stroke="#181818" stroke-width="1.5" stroke-linecap="square"/>
<path d="M15.75 5.99853L12 2.24854L8.25 5.99853" stroke="#181818" stroke-width="1.5"/>
<path d="M12 15.0454V3.24854" stroke="#181818" stroke-width="1.5" stroke-linecap="square" stroke-linejoin="round"/>
</svg>
