<svg width="36" height="37" viewBox="0 0 36 37" fill="none" xmlns="http://www.w3.org/2000/svg">
<path d="M24.5104 11.9895C25.682 13.1611 25.682 15.0606 24.5104 16.2322C23.3389 17.4037 21.4394 17.4037 20.2678 16.2322C19.0962 15.0606 19.0962 13.1611 20.2678 11.9895C21.4394 10.8179 23.3389 10.8179 24.5104 11.9895Z" fill="#0D55FF"/>
<path fill-rule="evenodd" clip-rule="evenodd" d="M27.5538 18.846L27.2317 9.26872L17.6543 8.94655L3.29761 23.3033L13.1971 33.2028L27.5538 18.846ZM29.1677 7.33271L29.5819 19.6464L13.1971 36.0312L0.469187 23.3033L16.854 6.9185L29.1677 7.33271Z" fill="#181818"/>
<path d="M7.54004 24.7174L15.3182 16.9392L16.7324 18.3534L8.95425 26.1316L7.54004 24.7174Z" fill="#181818"/>
<path d="M10.3682 27.5459L16.025 21.889L17.4392 23.3033L11.7824 28.9601L10.3682 27.5459Z" fill="#181818"/>
</svg>
