<svg width="20" height="20" viewBox="0 0 20 20" fill="none" xmlns="http://www.w3.org/2000/svg">
<path d="M6.75097 16.583C6.3763 16.583 6.0603 16.4547 5.80297 16.198C5.5463 15.9407 5.41797 15.6247 5.41797 15.25V5.5H4.41797V4.417H8.00097V3.521H12.001V4.417H15.584V5.5H14.584V15.229C14.584 15.6177 14.4556 15.9407 14.199 16.198C13.9416 16.4547 13.6256 16.583 13.251 16.583H6.75097ZM13.501 5.5H6.50097V15.25C6.50097 15.3053 6.52864 15.361 6.58397 15.417C6.63997 15.4723 6.69564 15.5 6.75097 15.5H13.251C13.3063 15.5 13.362 15.4723 13.418 15.417C13.4733 15.361 13.501 15.3053 13.501 15.25V5.5ZM8.33397 14H9.41797V7H8.33397V14ZM10.584 14H11.668V7H10.584V14ZM6.50097 5.5V15.5V15.25V5.5Z" fill="#FF4343"/>
</svg>
