<svg width="20" height="20" viewBox="0 0 20 20" fill="none" xmlns="http://www.w3.org/2000/svg">
<path d="M16.271 17.812L14.542 16.062C13.8613 16.5487 13.139 16.924 12.375 17.188C11.611 17.4513 10.8193 17.583 10 17.583C8.95867 17.583 7.976 17.3853 7.052 16.99C6.12867 16.594 5.323 16.0523 4.635 15.365C3.94767 14.677 3.406 13.8713 3.01 12.948C2.61467 12.024 2.417 11.0413 2.417 9.99999C2.417 9.18066 2.54867 8.38899 2.812 7.62499C3.076 6.86099 3.45133 6.13866 3.938 5.45799L2.375 3.91699L3.146 3.14599L17.021 17.042L16.271 17.812ZM10 16.5C10.6807 16.5 11.337 16.389 11.969 16.167C12.601 15.9443 13.2017 15.6457 13.771 15.271L10.062 11.583L8.917 12.708L6.375 10.167L7.146 9.39599L8.917 11.167L9.292 10.812L4.729 6.22899C4.35433 6.79833 4.05567 7.39899 3.833 8.03099C3.611 8.66299 3.5 9.31933 3.5 9.99999C3.5 11.8053 4.132 13.34 5.396 14.604C6.66 15.868 8.19467 16.5 10 16.5ZM16.312 14.208L15.521 13.438C15.8263 12.896 16.066 12.3403 16.24 11.771C16.4133 11.2017 16.5 10.6113 16.5 9.99999C16.5 8.19466 15.868 6.65999 14.604 5.39599C13.34 4.13199 11.8053 3.49999 10 3.49999C9.38867 3.49999 8.79833 3.58666 8.229 3.75999C7.65967 3.93399 7.104 4.17366 6.562 4.47899L5.792 3.68799C6.41667 3.27066 7.08667 2.95466 7.802 2.73999C8.51733 2.52466 9.25 2.41699 10 2.41699C11.0413 2.41699 12.024 2.61466 12.948 3.00999C13.8713 3.40599 14.677 3.94766 15.365 4.63499C16.0523 5.32299 16.594 6.12866 16.99 7.05199C17.3853 7.97599 17.583 8.95866 17.583 9.99999C17.583 10.75 17.4753 11.4827 17.26 12.198C17.0453 12.9133 16.7293 13.5833 16.312 14.208ZM11.854 9.77099L11.104 8.99999L12.833 7.27099L13.604 8.02099L11.854 9.77099Z" fill="#ff4343" stroke="none" />
</svg>
